<?xml version="1.0" encoding="iso-8859-1"?>
<!-- Generator: Adobe Illustrator 19.0.0, SVG Export Plug-In . SVG Version: 6.00 Build 0)  -->
<svg version="1.1" id="Capa_1" xmlns="http://www.w3.org/2000/svg" xmlns:xlink="http://www.w3.org/1999/xlink" x="0px" y="0px"
	 viewBox="0 0 512 512" style="enable-background:new 0 0 512 512;" xml:space="preserve">
<path style="fill:#FFDBBD;" d="M504.49,243.261c0-29.357-23.008-53.336-51.975-54.898c-2.476-6.752-5.016-12.715-7.41-17.308
	C414.099,98.232,341.897,46.96,258.478,46.401c-0.093-0.003-0.184-0.014-0.277-0.016c-0.737-0.012-1.466,0.011-2.201,0.007
	c-0.735,0.004-1.464-0.019-2.201-0.007c-0.094,0.002-0.184,0.013-0.277,0.016C170.103,46.96,96.758,91.39,65.753,164.214
	c-2.394,4.593-5.507,22.446-6.267,24.149C30.519,189.925,7.51,213.904,7.51,243.261c0,28.266,21.333,51.539,48.775,54.624
	c12.307,51.083,27.825,92.956,87.479,125.089c9.149,4.928,21.784,12.256,29.323,19.408c17.854,16.937,45.029,23.235,81.767,23.235
	c0.381,0,0.763-0.06,1.146-0.146c0.383,0.086,0.765,0.146,1.146,0.146c36.738,0,63.912-11.304,81.767-28.241
	c7.539-7.152,20.61-13.745,29.323-19.408c43.244-28.105,75.172-69,87.479-120.083C483.157,294.8,504.49,271.527,504.49,243.261z"/>
<path style="fill:#F4CAAE;" d="M452.515,188.363c-2.476-6.752-5.016-12.715-7.41-17.308
	C414.099,98.232,341.897,46.96,258.478,46.401c-0.093-0.003-0.184-0.014-0.277-0.015c-0.737-0.012-1.466,0.011-2.201,0.007
	c-0.735,0.004-1.464-0.019-2.201-0.007c-0.094,0.001-0.184,0.013-0.277,0.015c-8.212,0.055-16.325,0.542-24.311,1.432
	c73.602,8.783,135.683,57.123,163.825,123.222c2.394,4.593,4.934,10.556,7.41,17.308c0,0,17.264,49.113,3.201,109.522
	c-12.307,51.083-44.235,91.978-87.479,120.083c-8.713,5.663-21.784,12.256-29.323,19.408
	c-14.071,13.348-33.937,23.193-59.706,26.767c8.544,1.008,17.776,1.474,27.714,1.474c0.381,0,0.763-0.06,1.146-0.146
	c0.383,0.087,0.765,0.146,1.146,0.146c36.738,0,63.912-11.304,81.767-28.241c7.539-7.152,20.61-13.745,29.323-19.408
	c43.244-28.104,75.172-69,87.479-120.083c27.442-3.085,48.775-26.359,48.775-54.624C504.49,213.904,481.481,189.925,452.515,188.363
	z"/>
<g>
	<path style="fill:#D3AA8C;" d="M57.167,269.671c-12.473-2.475-21.621-13.451-21.621-26.41c0-13.007,9.229-23.949,21.621-26.419
		C57.167,216.842,54.954,267.458,57.167,269.671z"/>
	<path style="fill:#D3AA8C;" d="M454.833,269.671c12.473-2.475,21.621-13.451,21.621-26.41c0-13.007-9.229-23.949-21.621-26.419
		V269.671z"/>
</g>
<path style="fill:#E88080;" d="M256.047,292.634v-0.002c-0.016,0-0.032,0.001-0.047,0.001c-0.016,0-0.032-0.001-0.047-0.001v0.002
	c-47.29,0.661-92.04,38.186-82.704,76.054c3.745,15.19,41.361,3.732,65.963-2.569c11.018-2.822,22.559-2.822,33.577,0
	c24.602,6.301,62.218,17.759,65.963,2.569C348.088,330.82,303.338,293.296,256.047,292.634z"/>
<path style="fill:#FFFFFF;" d="M256.047,292.634v-0.002c-0.016,0-0.032,0.001-0.047,0.001c-0.016,0-0.032-0.001-0.047-0.001v0.002
	c-9.221,0.129-18.342,1.665-26.988,4.326v20.021c0,6.185,5.014,11.198,11.198,11.198h31.674c6.185,0,11.198-5.014,11.198-11.198
	V296.96C274.39,294.299,265.268,292.763,256.047,292.634z"/>
<path style="fill:#E6E6E6;" d="M256.047,292.634v10.011c-0.003,0-0.006-5.39-0.009-10.013c-0.002,0-0.005,0-0.007,0v35.547h15.806
	c6.185,0,11.198-5.014,11.198-11.198V296.96C274.39,294.299,265.268,292.763,256.047,292.634z"/>
<path d="M198.728,219.796c4.138,0.17,7.647-3.037,7.826-7.18c0.178-4.144-3.037-7.648-7.181-7.826
	c-40.138-1.719-56.895,24.949-57.589,26.086c-2.16,3.54-1.056,8.185,2.485,10.345c1.227,0.749,2.583,1.107,3.921,1.107
	c2.52,0,4.975-1.269,6.386-3.582C155.098,237.918,167.753,218.46,198.728,219.796z"/>
<path d="M316.33,204.71c-1.21,0-2.446,0.026-3.699,0.08c-4.144,0.178-7.359,3.682-7.181,7.826c0.178,4.143,3.69,7.355,7.826,7.18
	c30.9-1.336,43.563,18.019,44.147,18.944c1.42,2.293,3.876,3.558,6.393,3.558c1.334,0,2.683-0.355,3.904-1.1
	c3.541-2.161,4.659-6.782,2.499-10.322C369.548,229.775,353.812,204.71,316.33,204.71z"/>
<path d="M457.883,181.328c-2.027-5.188-4.032-9.708-5.981-13.479c-16.005-37.449-42.362-69.408-76.234-92.431
	c-34.684-23.575-75.111-36.202-116.925-36.524c-0.151-0.01-0.296-0.016-0.422-0.017c-0.48-0.008-0.959-0.004-1.439,0.001
	c-0.281,0.003-0.558,0.004-0.921,0.005c-0.282-0.001-0.56-0.002-0.84-0.005c-0.478-0.005-0.957-0.008-1.399-0.002
	c-0.154,0.002-0.306,0.008-0.462,0.018c-42.541,0.321-83.077,11.708-117.24,32.935c-34.706,21.564-61.356,52.414-77.082,89.222
	c-1.818,3.702-3.408,10.683-5.286,19.381c-0.069,0.322-0.142,0.655-0.214,0.992C23.051,185.825,0,211.971,0,243.262
	c0,30.048,21.225,55.509,50.18,61.268c6.37,25.624,13.415,47.039,25.697,66.949c14.584,23.641,35.625,42.648,64.326,58.107
	c13.025,7.017,22.35,13.156,27.716,18.245c18.193,17.258,45.817,25.296,86.935,25.296c0.377,0,0.758-0.019,1.146-0.058
	c0.388,0.039,0.769,0.058,1.146,0.058c35.975,0,66.037-10.478,86.934-30.302c4.657-4.417,12.382-8.997,19.198-13.037
	c3.239-1.919,6.296-3.732,9.05-5.522c45.542-29.598,76.38-70.912,89.444-119.726C490.752,298.8,512,273.327,512,243.262
	C512,211.737,488.603,185.436,457.883,181.328z M454.876,290.422c-3.139,0.353-5.722,2.633-6.462,5.704
	c-11.357,47.141-40.497,87.097-84.271,115.546c-2.494,1.621-5.424,3.357-8.525,5.195c-7.496,4.444-15.992,9.481-21.875,15.061
	c-17.993,17.069-44.361,26.119-76.273,26.18c-0.969-0.194-1.974-0.191-2.941,0c-36.848-0.039-61.091-6.771-76.274-21.173
	c-6.419-6.088-16.536-12.817-30.93-20.572c-58.206-31.351-72.361-73.001-83.74-120.236c-0.739-3.07-3.323-5.351-6.462-5.704
	c-24.004-2.699-42.105-22.973-42.105-47.161c0-25.222,19.709-46.042,44.871-47.4c2.813-0.152,5.306-1.867,6.454-4.44
	c0.555-1.246,0.896-2.759,1.988-7.82c0.891-4.124,2.976-13.781,4.08-15.916c0.09-0.173,0.173-0.35,0.249-0.53
	c14.496-34.048,39.146-62.6,71.283-82.568c24.766-15.388,53.18-25.22,83.316-28.965c-1.978,2.106-3.952,4.452-5.835,7.062
	c-9.86,13.67-19.074,37.188-6.979,71.592c1.086,3.089,3.986,5.021,7.085,5.021c0.826,0,1.667-0.138,2.491-0.427
	c3.913-1.375,5.97-5.663,4.594-9.575c-17.806-50.648,18.418-71.672,23.569-74.362c-2.442,7.258-4.145,17.145-1.58,28.242
	c4.18,18.092,18.184,33.691,41.622,46.367c1.135,0.615,2.359,0.906,3.565,0.905c2.669,0,5.254-1.426,6.612-3.939
	c1.973-3.647,0.615-8.205-3.033-10.177c-19.387-10.485-30.856-22.712-34.087-36.343c-2.659-11.214,1.025-20.97,3.418-25.735
	c35.23,2.076,69.098,13.588,98.521,33.588c31.565,21.455,56.107,51.247,70.97,86.157c0.076,0.179,0.159,0.355,0.249,0.528
	c2.202,4.225,4.629,9.904,7.019,16.423c1.035,2.819,3.648,4.751,6.646,4.914c25.162,1.357,44.871,22.177,44.871,47.4
	C496.98,267.449,478.88,287.724,454.876,290.422z"/>
<path d="M58.635,224.207c4.068-0.811,6.708-4.766,5.897-8.833c-0.811-4.068-4.774-6.709-8.833-5.897
	c-16.03,3.196-27.663,17.404-27.663,33.783c0,16.39,11.636,30.595,27.669,33.776c0.494,0.098,0.986,0.145,1.47,0.145
	c3.511,0,6.649-2.474,7.358-6.049c0.808-4.069-1.836-8.021-5.904-8.828c-9.023-1.79-15.573-9.8-15.573-19.044
	C43.056,234.02,49.608,226.007,58.635,224.207z"/>
<path d="M456.301,209.477c-4.072-0.812-8.022,1.83-8.833,5.897s1.83,8.022,5.897,8.833c9.026,1.799,15.578,9.813,15.578,19.053
	c0,9.244-6.549,17.254-15.572,19.044c-4.068,0.807-6.712,4.759-5.904,8.828c0.709,3.575,3.847,6.049,7.358,6.049
	c0.484,0,0.976-0.047,1.47-0.145c16.032-3.181,27.668-17.386,27.668-33.776C483.963,226.881,472.329,212.673,456.301,209.477z"/>
<path d="M285.475,289.875c-0.079-0.027-0.151-0.067-0.231-0.092c-0.302-0.093-0.606-0.172-0.908-0.263
	c-0.186-0.055-0.373-0.107-0.559-0.161c-2.459-0.719-4.927-1.347-7.404-1.884c-0.254-0.055-0.508-0.11-0.762-0.164
	c-0.75-0.157-1.5-0.307-2.25-0.446c-0.28-0.052-0.56-0.1-0.84-0.15c-2.235-0.398-4.473-0.722-6.711-0.97
	c-0.558-0.062-1.115-0.123-1.673-0.177c-0.495-0.047-0.99-0.089-1.485-0.128c-0.682-0.055-1.365-0.101-2.048-0.141
	c-0.394-0.023-0.788-0.049-1.181-0.068c-1.091-0.052-2.181-0.091-3.271-0.106c-0.034-0.001-0.069-0.003-0.105-0.003
	c-0.076,0-0.168,0.002-0.256,0.004c-1.086,0.016-2.173,0.055-3.259,0.107c-0.401,0.019-0.803,0.046-1.204,0.07
	c-0.672,0.041-1.343,0.086-2.014,0.14c-0.502,0.04-1.005,0.083-1.507,0.131c-0.544,0.052-1.088,0.112-1.632,0.173
	c-2.258,0.251-4.515,0.579-6.768,0.982c-0.265,0.047-0.531,0.092-0.796,0.142c-0.756,0.141-1.51,0.292-2.264,0.45
	c-0.25,0.053-0.5,0.107-0.75,0.161c-2.487,0.54-4.967,1.171-7.436,1.895c-0.173,0.051-0.347,0.099-0.52,0.15
	c-0.295,0.088-0.59,0.165-0.885,0.256c-0.08,0.024-0.151,0.065-0.23,0.092c-19.537,6.061-37.195,17.569-48.742,32.523
	c-11.576,14.991-15.776,32.069-11.827,48.088c1.036,4.205,3.598,7.623,7.41,9.888c11.677,6.941,32.599,2.222,60.88-5.201
	c2.358-0.618,4.644-1.218,6.828-1.778c9.763-2.501,20.087-2.501,29.849,0c2.184,0.559,4.471,1.16,6.828,1.778
	c18.59,4.879,33.997,8.589,45.692,8.589c6.097,0,11.186-1.01,15.188-3.388c3.812-2.265,6.374-5.683,7.41-9.888
	c3.949-16.019-0.251-33.097-11.827-48.088C322.669,307.444,305.012,295.937,285.475,289.875z M236.475,302.675
	c6.469-1.58,12.993-2.43,19.46-2.532c0.003,0,0.005,0,0.008,0c0.812,0.011,1.624,0.035,2.437,0.069
	c0.081,0.004,0.163,0.01,0.244,0.014c5.625,0.258,11.284,1.077,16.902,2.449v14.306c0,2.034-1.654,3.688-3.688,3.688h-31.674
	c-2.034,0-3.688-1.654-3.688-3.688v-14.306H236.475z M331.459,366.891c-0.053,0.214-0.079,0.322-0.5,0.571
	c-7.171,4.264-33.603-2.672-49.394-6.817c-2.387-0.626-4.702-1.234-6.913-1.8c-6.102-1.563-12.376-2.344-18.652-2.344
	s-12.551,0.781-18.652,2.344c-2.211,0.566-4.526,1.174-6.913,1.8c-15.791,4.145-42.224,11.083-49.394,6.817
	c-0.42-0.249-0.447-0.357-0.5-0.571c-3.628-14.714,2.963-27.325,9.131-35.313c7.824-10.133,19.042-18.389,31.784-23.898v9.3
	c0,10.315,8.393,18.708,18.708,18.708h31.674c10.315,0,18.708-8.393,18.708-18.708v-9.3c12.741,5.508,23.959,13.763,31.784,23.896
	C328.497,339.566,335.087,352.177,331.459,366.891z"/>
<g>
</g>
<g>
</g>
<g>
</g>
<g>
</g>
<g>
</g>
<g>
</g>
<g>
</g>
<g>
</g>
<g>
</g>
<g>
</g>
<g>
</g>
<g>
</g>
<g>
</g>
<g>
</g>
<g>
</g>
</svg>
