<?xml version="1.0" encoding="iso-8859-1"?>
<!-- Generator: Adobe Illustrator 19.0.0, SVG Export Plug-In . SVG Version: 6.00 Build 0)  -->
<svg version="1.1" id="Capa_1" xmlns="http://www.w3.org/2000/svg" xmlns:xlink="http://www.w3.org/1999/xlink" x="0px" y="0px"
	 viewBox="0 0 512 512" style="enable-background:new 0 0 512 512;" xml:space="preserve">
<path style="fill:#8C6239;" d="M443.201,482.069c1.247-1.734,1.821-3.986,1.433-6.447l-21.779-138.018
	c-0.857-5.433-5.435-12.164-10.172-14.959l-114.03-67.268h-85.305l-114.03,67.268c-4.737,2.795-9.368,9.517-10.29,14.94
	L65.544,475.642c-0.417,2.453,0.128,4.698,1.352,6.428h376.305V482.069z"/>
<path style="opacity:0.1;enable-background:new    ;" d="M88.963,482.069c-1.574-1.977-2.305-4.642-1.807-7.571l26.206-154.069
	c0.432-2.54,1.599-5.332,3.191-7.952l-17.236,10.168c-4.737,2.795-9.368,9.517-10.29,14.94L65.544,475.642
	c-0.417,2.453,0.128,4.698,1.352,6.428h22.067V482.069z"/>
<path style="fill:#FFFFFF;" d="M204.59,423.012V423h26.105l17.878-56.698l-46.792,3.476c-2.742,0.204-4.819,2.614-4.616,5.357
	l3.416,45.981C202.066,421.442,203.429,422.103,204.59,423.012z"/>
<path style="fill:#EE3835;" d="M230.694,423l12.05-38.216l-23.674,1.759c-1.646,0.122-2.893,1.568-2.77,3.214L218.77,423H230.694z"
	/>
<path style="fill:#FFFFFF;" d="M310.231,377.167L255.8,360.003c-2.623-0.827-5.445,0.643-6.272,3.265L230.694,423h60.146
	c3.589,0,6.773,1.702,8.814,4.336l13.842-43.897C314.323,380.816,312.854,377.994,310.231,377.167z"/>
<path style="fill:#EE3835;" d="M282.148,423l9.369-29.714c0.496-1.574-0.385-3.267-1.959-3.764l-23.911-7.54
	c-1.574-0.497-3.268,0.385-3.764,1.959L249.568,423H282.148z"/>
<path style="fill:#FED0A5;" d="M302,434.169C302,428,297.004,423,290.841,423h-86.268c2.353,1.834,3.879,4.685,3.879,7.881v41.188
	c0,5.5-4.5,10-10,10h78.532c2.805-2.029,4.638-5.322,4.638-9.051c0-3.275-1.417-6.212-3.661-8.255h2.691
	c6.163,0,11.159-5.001,11.159-11.17c0-3.275-1.418-6.212-3.662-8.255h2.691C297.004,445.338,302,440.337,302,434.169z"/>
<g>
	<path style="fill:#FECF05;" d="M321.779,7.5H115.05c-1.203,0-2.319,0.651-2.919,1.709c-0.583,1.043-0.567,2.33,0.049,3.364
		l28.066,46.782c0.183,0.304,0.278,0.65,0.278,1.002v66.044c2.474-1.017,5.18-1.586,8.021-1.586c5.059,0,9.698,1.781,13.328,4.744
		V87.361c0-8.25,6.75-15,15-15h158.252c8.25,0,15,6.75,15,15v42.197c3.63-2.962,8.268-4.743,13.327-4.743
		c4.009,0,7.742,1.137,10.932,3.074V60.154C374.385,31.121,350.786,7.5,321.779,7.5z"/>
	<path style="fill:#FECF05;" d="M372.512,476.001c0,2.75-2.25,5-5,5h-37.814c-2.75,0-5-2.25-5-5v-9.156c0-2.75,2.25-5,5-5h37.814
		c2.75,0,5,2.25,5,5V476.001z"/>
</g>
<g>
	<path style="fill:#F8B816;" d="M372.512,456.845c0,2.75-2.25,5-5,5h-37.814c-2.75,0-5-2.25-5-5v-9.157c0-2.75,2.25-5,5-5h37.814
		c2.75,0,5,2.25,5,5V456.845z"/>
	<path style="fill:#F8B816;" d="M422,476.001c0,2.75-2.25,5-5,5h-37.815c-2.75,0-5-2.25-5-5v-9.156c0-2.75,2.25-5,5-5H417
		c2.75,0,5,2.25,5,5V476.001z"/>
</g>
<g>
	<path style="fill:#FECF05;" d="M422,456.845c0,2.75-2.25,5-5,5h-37.815c-2.75,0-5-2.25-5-5v-9.157c0-2.75,2.25-5,5-5H417
		c2.75,0,5,2.25,5,5V456.845z"/>
	<path style="fill:#FECF05;" d="M410.622,437.688c0,2.75-2.25,5-5,5h-37.815c-2.75,0-5-2.25-5-5v-9.157c0-2.75,2.25-5,5-5h37.815
		c2.75,0,5,2.25,5,5V437.688z"/>
</g>
<path style="fill:#FFFFFF;" d="M191.08,352.544l52.654-27.126c1.594-0.822,2.813-2.489,3.339-4.298l-25.842-52.091
	c-1.222-2.463-2.222-6.729-2.222-9.479v-4.172h-5.662l-10.039,5.922l-15.795,88.612C187.03,352.619,188.636,353.804,191.08,352.544z
	"/>
<path style="opacity:0.1;enable-background:new    ;" d="M220.061,265.897c-0.628-2.152-1.052-4.566-1.052-6.348v-4.172h-5.662
	l-10.039,5.922l-15.795,88.612c-0.483,2.708,1.122,3.892,3.566,2.632l14.905-7.679L220.061,265.897z"/>
<path style="fill:#FFFFFF;" d="M270.207,325.418l52.652,27.126c2.445,1.26,4.051,0.075,3.568-2.632l-15.569-87.333l-0.001-0.001
	l-12.205-7.2h-5.479v4.172c0,2.75-1,7.016-2.222,9.479l-24.218,48.817l-0.067,0.365
	C266.169,320.915,267.762,324.158,270.207,325.418z"/>
<g>
	<path style="fill:#EBB272;" d="M219.01,255.377v4.172c0,2.75,1,7.016,2.222,9.479l32.638,65.79c1.222,2.463,3.222,2.463,4.443,0
		l32.639-65.79c1.222-2.463,2.222-6.729,2.222-9.479v-4.172L219.01,255.377L219.01,255.377z"/>
	<path style="fill:#EBB272;" d="M161.874,129.56c-3.63-2.963-8.269-4.744-13.328-4.744c-11.624,0-21.049,9.387-21.049,20.966v24.276
		c0,11.579,9.425,20.966,21.049,20.966c5.059,0,9.698-1.781,13.328-4.744V129.56z"/>
	<path style="fill:#EBB272;" d="M363.453,124.816c-5.059,0-9.697,1.78-13.327,4.743v56.722c3.63,2.962,8.268,4.743,13.327,4.743
		c11.625,0,21.05-9.387,21.05-20.966v-24.276C384.503,134.203,375.078,124.816,363.453,124.816z"/>
</g>
<path style="fill:#FED0A5;" d="M350.126,240.377c0,8.25-6.75,15-15,15H176.874c-8.25,0-15-6.75-15-15V87.361c0-8.25,6.75-15,15-15
	h158.252c8.25,0,15,6.75,15,15L350.126,240.377L350.126,240.377z"/>
<g style="opacity:0.1;">
	<path d="M181.748,240.377V87.361c0-8.25,6.75-15,15-15h-19.874c-8.25,0-15,6.75-15,15v153.016c0,8.25,6.75,15,15,15h19.874
		C188.498,255.377,181.748,248.627,181.748,240.377z"/>
</g>
<path style="fill:#068F8F;" d="M497.137,494.5c0,5.5-4.5,10-10,10H24.863c-5.5,0-10-4.5-10-10v-2.431c0-5.5,4.5-10,10-10h462.273
	c5.5,0,10,4.5,10,10L497.137,494.5L497.137,494.5z"/>
<path style="fill:#0059AD;" d="M190.903,186.033c-20.531,0-37.234-16.718-37.234-37.267v-19.998c0-5.02,4.066-9.089,9.081-9.089
	h71.745c5.016,0,9.081,4.07,9.081,9.089v19.998c0,20.549-16.703,37.267-37.233,37.267H190.903z"/>
<g style="opacity:0.1;">
	<path d="M171,148.766v-19.998c0-5.02,4.065-9.089,9.081-9.089H162.75c-5.016,0-9.081,4.07-9.081,9.089v19.998
		c0,20.549,16.703,37.267,37.234,37.267h15.439c0.317,0,0.631-0.016,0.946-0.024C187.194,185.503,171,168.998,171,148.766z"/>
</g>
<path style="fill:#0059AD;" d="M305.658,186.033c-20.53,0-37.233-16.718-37.233-37.267v-19.998c0-5.02,4.066-9.089,9.081-9.089
	h71.745c5.016,0,9.082,4.07,9.082,9.089v19.998c0,20.549-16.704,37.267-37.235,37.267H305.658z"/>
<path d="M487.137,474.569h-35.08c-0.006-0.039-0.009-0.078-0.015-0.116l-10.671-67.622c-0.646-4.091-4.482-6.884-8.577-6.239
	c-4.092,0.646-6.885,4.486-6.239,8.577l10.32,65.401H429.5v-7.724c0-1.778-0.379-3.467-1.051-5c0.672-1.533,1.051-3.222,1.051-5
	v-9.157c0-6.514-5.01-11.873-11.378-12.443v-6.713c0-6.892-5.608-12.5-12.5-12.5H389.5V386.5c0-4.142-3.357-7.5-7.5-7.5
	s-7.5,3.358-7.5,7.5v29.531h-6.692c-6.893,0-12.5,5.608-12.5,12.5v6.657h-25.61c-6.893,0-12.5,5.607-12.5,12.5v9.157
	c0,1.778,0.379,3.467,1.051,5c-0.672,1.533-1.051,3.222-1.051,5v7.724H289.05c0.043-0.512,0.072-1.028,0.072-1.551
	c0-0.906-0.066-1.806-0.197-2.692c6.149-3.056,10.387-9.409,10.387-16.733c0-0.906-0.066-1.806-0.197-2.693
	c6.149-3.056,10.386-9.408,10.386-16.732c0-2.76-0.617-5.374-1.697-7.733l12.846-40.741c1.003-3.179,0.705-6.563-0.838-9.528
	c-1.544-2.966-4.145-5.151-7.323-6.153l-54.433-17.164c-1.215-0.383-2.476-0.577-3.747-0.577c-4.821,0-9.105,2.711-11.194,6.914
	l-41.89,3.112c-6.872,0.512-12.048,6.519-11.539,13.392l2.8,37.691H145.5V389c0-4.142-3.357-7.5-7.5-7.5s-7.5,3.358-7.5,7.5v24.381
	H119c-4.143,0-7.5,3.358-7.5,7.5s3.357,7.5,7.5,7.5h79.452c1.355,0,2.5,1.145,2.5,2.5v41.188c0,1.355-1.145,2.5-2.5,2.5H73.334
	l23.087-135.728c0.552-3.243,3.874-8.065,6.707-9.737l89.933-53.052l-12.93,72.541c-0.593,3.315,0.133,6.396,2.04,8.676
	c1.745,2.083,4.343,3.279,7.128,3.279c1.74,0,3.495-0.45,5.216-1.337l50.243-25.884l2.393,4.824c1.867,3.767,5.21,6.016,8.94,6.016
	c3.73,0,7.073-2.249,8.941-6.015l2.752-5.546l51.642,26.606c1.722,0.887,3.477,1.337,5.216,1.337c2.785,0,5.383-1.195,7.128-3.278
	c1.908-2.278,2.634-5.359,2.043-8.675l-12.704-71.264l87.765,51.773c2.81,1.657,6.065,6.446,6.574,9.668l6.374,40.396
	c0.645,4.091,4.485,6.888,8.577,6.239c4.092-0.646,6.885-4.486,6.239-8.577l-6.374-40.396c-1.203-7.624-7.123-16.329-13.77-20.25
	l-90.366-53.308h8.999c12.406,0,22.5-10.093,22.5-22.5V230c0-4.142-3.357-7.5-7.5-7.5s-7.5,3.358-7.5,7.5v10.377
	c0,4.136-3.364,7.5-7.5,7.5H176.874c-4.136,0-7.5-3.364-7.5-7.5v-52.385c6.392,3.527,13.729,5.54,21.529,5.54h15.439
	c11.406,0,21.823-4.301,29.733-11.358v14.232c0,4.142,3.357,7.5,7.5,7.5h20.378c4.143,0,7.5-3.358,7.5-7.5s-3.357-7.5-7.5-7.5
	h-12.878v-40.141V137.16v-8.393c0-0.537-0.03-1.066-0.08-1.589h10.008c-0.05,0.524-0.08,1.053-0.08,1.589v19.998
	c0,24.685,20.067,44.767,44.733,44.767h15.44c7.8,0,15.138-2.013,21.529-5.54V201c0,4.142,3.357,7.5,7.5,7.5s7.5-3.358,7.5-7.5
	v-3.086c1.883,0.392,3.829,0.61,5.827,0.61c15.742,0,28.55-12.77,28.55-28.466v-24.276c0-8.696-3.935-16.488-10.118-21.714V60.154
	C381.885,26.985,354.921,0,321.779,0H115.05c-3.898,0-7.518,2.112-9.466,5.551c-1.886,3.375-1.828,7.536,0.164,10.881l8.654,14.426
	c2.132,3.552,6.738,4.703,10.29,2.573c3.552-2.131,4.704-6.738,2.573-10.29L122.382,15h199.396
	c24.872,0,45.107,20.256,45.107,45.154v57.375c-1.126-0.135-2.27-0.213-3.432-0.213c-0.726,0-1.441,0.036-2.153,0.089
	c-1.077-1.143-2.313-2.129-3.674-2.931V87.361c0-12.407-10.094-22.5-22.5-22.5h-47.604l-20.395-20.413
	c-2.927-2.93-7.676-2.933-10.606-0.005c-2.931,2.928-2.933,7.676-0.005,10.606l9.803,9.812h-15.67l-20.395-20.413
	c-2.928-2.93-7.677-2.933-10.606-0.005c-2.931,2.928-2.933,7.676-0.005,10.606l9.803,9.812h-15.671L193.38,44.448
	c-2.928-2.93-7.677-2.933-10.606-0.005c-2.931,2.928-2.933,7.676-0.005,10.606l9.803,9.812h-15.697c-12.406,0-22.5,10.093-22.5,22.5
	v27.114c-1.36,0.801-2.596,1.788-3.673,2.931c-0.712-0.054-1.43-0.09-2.155-0.09c-0.175,0-0.348,0.01-0.521,0.013V60.357
	c0-1.714-0.467-3.397-1.347-4.86l-5.612-9.356c-2.132-3.553-6.739-4.704-10.29-2.574c-3.552,2.131-4.704,6.737-2.573,10.289
	l4.822,8.04v60.013c-7.833,5.081-13.027,13.88-13.027,23.872v24.276c0,15.696,12.807,28.466,28.549,28.466
	c1.998,0,3.945-0.218,5.828-0.61v42.464c0,12.407,10.094,22.5,22.5,22.5h8.999l-90.366,53.308
	c-6.621,3.906-12.585,12.565-13.873,20.142L58.15,474.384c-0.011,0.062-0.016,0.124-0.025,0.185H24.863
	c-9.649,0-17.5,7.851-17.5,17.5v2.431c0,9.649,7.851,17.5,17.5,17.5h462.273c9.649,0,17.5-7.851,17.5-17.5v-2.431
	C504.637,482.42,496.786,474.569,487.137,474.569z M300.293,263.692h3.146l13.822,77.531l-42.812-22.056l23.221-46.807
	C298.849,269.984,299.797,266.751,300.293,263.692z M285.171,262.877c-0.265,1.088-0.603,2.139-0.939,2.818l-28.142,56.726
	l-10.748-21.665h3.259c4.143,0,7.5-3.358,7.5-7.5s-3.357-7.5-7.5-7.5h-10.7l-9.951-20.06c-0.337-0.679-0.674-1.731-0.938-2.819
	H285.171z M210.501,263.692h1.389c0.496,3.059,1.444,6.293,2.623,8.669l23.578,47.527l-41.41,21.333L210.501,263.692z
	 M357.626,174.559c5.161-7.297,8.206-16.193,8.206-25.794v-16.229c6.339,1.122,11.171,6.627,11.171,13.245v24.276
	c0,7.425-6.078,13.466-13.55,13.466c-2.086,0-4.063-0.472-5.827-1.313V174.559z M154.374,182.21
	c-1.766,0.842-3.741,1.314-5.828,1.314c-7.471,0-13.549-6.04-13.549-13.466v-24.276c0-6.618,4.833-12.124,11.172-13.245v16.229
	c0,9.6,3.045,18.495,8.205,25.792V182.21z M350.126,127.446v15.989c0.153-0.862,0.396-1.692,0.706-2.49v7.821
	c0,16.414-13.339,29.767-29.735,29.767h-15.44c-16.396,0-29.733-13.354-29.733-29.767v-19.998c0-0.876,0.709-1.589,1.581-1.589
	h71.745C349.574,127.178,349.875,127.277,350.126,127.446z M169.374,87.361c0-4.136,3.364-7.5,7.5-7.5h158.252
	c4.136,0,7.5,3.364,7.5,7.5v24.817h-65.121c-0.084,0-0.166,0.011-0.25,0.013c-0.084-0.003-0.166-0.013-0.251-0.013h-42.008
	c-0.085,0-0.167,0.01-0.251,0.013c-0.084-0.001-0.166-0.013-0.25-0.013h-65.121L169.374,87.361L169.374,87.361z M161.169,140.95
	c0.31,0.798,0.552,1.628,0.705,2.491v-15.995c0.251-0.168,0.552-0.268,0.876-0.268h71.745c0.872,0,1.581,0.713,1.581,1.589v8.393
	v11.605c0,16.414-13.338,29.767-29.733,29.767h-15.439c-16.396,0-29.734-13.354-29.734-29.767v-7.815H161.169z M414.5,450.188v4.157
	h-32.815v-4.157h23.937H414.5z M414.5,469.345v4.156h-32.815v-4.156H414.5z M370.309,431.031h32.815v4.157h-23.937h-8.878V431.031z
	 M332.197,450.188h32.814v4.157h-32.814V450.188z M332.197,469.345h32.814v4.156h-32.814V469.345z M290.841,437.838h-2.691
	c-0.209,0-0.411,0.03-0.616,0.047c-0.271-0.03-0.544-0.047-0.822-0.047h-22.318c-4.143,0-7.5,3.358-7.5,7.5s3.357,7.5,7.5,7.5
	h19.834c0.05,0.235,0.085,0.483,0.085,0.755c0,2.023-1.642,3.67-3.659,3.67h-2.691c-0.371,0-0.738,0.031-1.098,0.084
	c-0.349-0.05-0.701-0.084-1.064-0.084h-17.467c-4.143,0-7.5,3.358-7.5,7.5s3.357,7.5,7.5,7.5h15.704
	c0.05,0.235,0.085,0.483,0.085,0.755c0,0.556-0.134,1.078-0.355,1.551h-58.001c0.118-0.817,0.187-1.65,0.187-2.5v-41.188
	c0-0.129-0.017-0.253-0.02-0.381h74.908c2.018,0,3.659,1.646,3.659,3.669C294.5,436.192,292.858,437.838,290.841,437.838z
	 M224.113,393.69l8.149-0.605l-6.632,21.033L224.113,393.69z M259.797,415.5l7.887-25.012l15.328,4.833l-6.362,20.178L259.797,415.5
	L259.797,415.5z M255.93,367.908l49.662,15.66l-10.25,32.504c-0.97-0.242-1.966-0.413-2.988-0.496l6.317-20.036
	c1.74-5.521-1.335-11.43-6.856-13.171l-23.911-7.539c-1.021-0.323-2.082-0.486-3.152-0.486c-4.609,0-8.636,2.951-10.021,7.342
	L244.068,415.5h-3.146L255.93,367.908z M238.091,374.601l-0.972,3.081l-18.604,1.382c-2.794,0.207-5.343,1.493-7.176,3.619
	c-1.833,2.127-2.727,4.838-2.518,7.63l1.87,25.187h-3.008l-2.854-38.428L238.091,374.601z M489.637,494.5c0,1.355-1.145,2.5-2.5,2.5
	H24.863c-1.356,0-2.5-1.145-2.5-2.5v-2.431c0-1.355,1.144-2.5,2.5-2.5h462.273c1.355,0,2.5,1.145,2.5,2.5L489.637,494.5
	L489.637,494.5z"/>
<path d="M240.786,221.654c-4.143,0-7.5,3.358-7.5,7.5s3.357,7.5,7.5,7.5h30.427c4.143,0,7.5-3.358,7.5-7.5s-3.357-7.5-7.5-7.5
	H240.786z"/>
<g>
</g>
<g>
</g>
<g>
</g>
<g>
</g>
<g>
</g>
<g>
</g>
<g>
</g>
<g>
</g>
<g>
</g>
<g>
</g>
<g>
</g>
<g>
</g>
<g>
</g>
<g>
</g>
<g>
</g>
</svg>
