<svg height="504pt" viewBox="-68 0 504 504.024" width="504pt" xmlns="http://www.w3.org/2000/svg"><path d="m256.011719 431.878906-16-16 32-32-16-16h40c35.359375 0 64 28.640625 64 64v56c0 4.410156-3.589844 8-8 8h-144zm36 23.769532c6.640625 0 12-5.359376 12-12v-20h-24v20c0 6.640624 5.359375 12 12 12zm0 0" fill="#434a54"/><path d="m296.011719 367.878906h-24.015625c35.359375 0 63.984375 28.640625 63.984375 64v56c0 4.410156-3.59375 8-8 8h24.03125c4.410156 0 8-3.589844 8-8v-56c0-35.359375-28.640625-64-64-64zm0 0" fill="#353b44"/><path d="m304.011719 423.648438v20c0 6.640624-5.359375 12-12 12s-12-5.359376-12-12v-20zm0 0" fill="#ed5565"/><path d="m159.140625 431.878906 24.871094 64h-24l-48-64 16-16-32-32 32-32 12.488281 32zm0 0" fill="#656d78"/><path d="m112.011719 431.878906 48 64h-144c-4.40625 0-8-3.589844-8-8v-56c0-35.359375 28.640625-64 64-64h40l-16 16 32 32zm0 0" fill="#434a54"/><path d="m256.011719 367.878906 16 16-32 32 16 16-48 64h-24l24.871093-64 18.640626-48 12.488281-32zm0 0" fill="#656d78"/><path d="m227.523438 383.878906-18.640626 48-16.871093-40 16-18.800781zm0 0" fill="#e6e9ed"/><path d="m208.011719 373.078125-16 18.800781h-16l-16-18.800781 24-13.199219zm0 0" fill="#ed5565"/><path d="m160.011719 373.078125 16 18.800781-16.871094 40-18.640625-48zm0 0" fill="#e6e9ed"/><path d="m192.011719 391.878906 16.871093 40-24.871093 64-24.871094-64 16.871094-40zm0 0" fill="#da4453"/><path d="m240.011719 351.878906-12.488281 32-19.511719-10.800781-24-13.199219-24 13.199219-19.511719 10.800781-12.488281-32v-29.832031c16.71875 8.800781 35.753906 13.832031 56 13.832031 20.230469 0 39.28125-5.039062 56-13.832031zm0 0" fill="#f5f7fa"/><path d="m360.011719 151.886719c0 9.28125-21.511719 17.601562-56 23.359375-31.441407 5.363281-73.609375 8.640625-120 8.640625-46.40625 0-88.558594-3.277344-120-8.640625-34.488281-5.757813-56-14.078125-56-23.359375 0-9.757813 23.839843-18.480469 61.359375-24.320313l-5.359375 24.320313h240l-5.359375-24.320313c37.519531 5.839844 61.359375 14.5625 61.359375 24.320313zm0 0" fill="#656d78"/><path d="m280.011719 223.808594c0-13.28125 10.71875-24 24-24v16.078125c0 45.992187-25.917969 85.992187-64 106.160156-16.71875 8.800781-35.769531 13.832031-56 13.832031-20.246094 0-39.28125-5.039062-56-13.832031-38.078125-20.167969-64-60.167969-64-106.160156v-16.078125c13.28125 0 24 10.71875 24 24 0 39.839844 32.160156 72 72 72l8-8h32l8 8c39.753906-.007813 72-32.160156 72-72zm0 0" fill="#656d78"/><path d="m304.011719 199.808594c-13.28125 0-24 10.71875-24 24 0 39.839844-32.246094 72-72 72l-8-8h-32l-8 8c-39.839844 0-72-32.160156-72-72 0-13.28125-10.71875-24-24-24v-24.5625c31.441406 5.363281 73.59375 8.640625 120 8.640625 46.390625 0 88.558593-3.277344 120-8.640625zm0 0" fill="#eac6bb"/><path d="m292.402344 177.054688c-3.71875.539062-7.589844 1.023437-11.542969 1.503906-.296875.035156-.558594.074218-.855469.113281v37.214844c0 11.761719-1.71875 23.121093-4.871094 33.875 3.09375-8.058594 4.878907-16.785157 4.878907-25.953125 0-13.28125 10.71875-24 24-24v-24.5625c-3.71875.632812-7.589844 1.234375-11.609375 1.808594zm0 0" fill="#d3b1a9"/><path d="m280.011719 223.808594c0 9.167968-1.785157 17.894531-4.886719 25.953125-9.199219 31.277343-30.785156 57.277343-59.128906 72.285156-13.359375 7.03125-28.214844 11.609375-43.984375 13.183594.03125 0 .046875 0 .0625.007812 3.9375.386719 7.90625.640625 11.9375.640625 20.230469 0 39.28125-5.039062 56-13.832031 38.082031-20.167969 64-60.167969 64-106.160156v-16.078125c-13.28125 0-24 10.71875-24 24zm0 0" fill="#434a54"/><path d="m298.570312 127.566406h.082032l5.359375 24.320313h-240l5.359375-24.320313 1.769531-7.679687h225.742187zm0 0" fill="#ed5565"/><path d="m272.011719 7.808594 24.871093 112.078125h-225.742187l24.871094-112.078125c56 0 56 24.078125 88 24.078125s31.921875-24.078125 88-24.078125zm0 0" fill="#656d78"/><path d="m298.652344 127.566406h-.082032l-1.6875-7.679687h-24.015624l1.6875 7.679687h.082031l5.359375 24.320313h24.015625zm0 0" fill="#da4453"/><path d="m272.011719 7.808594c-9.328125 0-16.984375.710937-23.609375 1.824218l24.464844 110.253907h24.015624zm0 0" fill="#434a54"/><path d="m8.011719 440.046875c-4.421875 0-8.0000002-3.574219-8.0000002-8 0-39.710937 32.3046872-72.015625 72.0156252-72.015625 4.425781 0 8 3.578125 8 8 0 4.425781-3.574219 8-8 8-30.886719 0-56.015625 25.128906-56.015625 56.015625 0 4.417969-3.574219 8-8 8zm0 0"/><path d="m360.011719 440.039062c-4.421875 0-8-3.574218-8-8 0-30.871093-25.128907-56-56-56-4.421875 0-8-3.574218-8-8 0-4.421874 3.578125-8 8-8 39.703125 0 72 32.296876 72 72 0 4.417969-3.574219 8-8 8zm0 0"/><path d="m72.027344 376.03125c-4.414063 0-8-3.574219-8-8 0-4.414062 3.578125-8 8-8l39.992187-.007812c4.417969 0 8 3.578124 8 8 0 4.417968-3.574219 8-8 8zm0 0"/><path d="m8.019531 496.023438c-4.414062 0-7.9999998-3.574219-7.9999998-8l-.0078124-55.976563c0-4.414063 3.5781252-8 8.0000002-8 4.417969 0 8 3.578125 8 8l.007812 55.976563c0 4.410156-3.574219 8-8 8zm0 0"/><path d="m16.019531 504.023438c-8.824219 0-15.9999998-7.175782-15.9999998-16 0-4.421876 3.5781248-8 7.9999998-8 4.425781 0 8 3.578124 8 8v.015624c4.425781 0 8 3.570313 8 7.992188 0 4.410156-3.574219 7.992188-8 7.992188zm0 0"/><path d="m352.011719 504.023438c-4.421875 0-8-3.574219-8-8 0-4.421876 3.578125-8 8-8h.015625c0-4.421876 3.570312-8 7.992187-8 4.417969 0 7.992188 3.578124 7.992188 8 0 8.816406-7.175781 16-16 16zm0 0"/><path d="m360.011719 496.023438c-4.421875 0-8-3.574219-8-8v-55.984376c0-4.421874 3.578125-8 8-8 4.425781 0 8 3.578126 8 8v55.984376c0 4.417968-3.574219 8-8 8zm0 0"/><path d="m352.011719 504.023438h-335.992188c-4.421875 0-8-3.574219-8-8 0-4.421876 3.578125-8 8-8h335.992188c4.425781 0 8 3.578124 8 8 0 4.425781-3.574219 8-8 8zm0 0"/><path d="m128.011719 360.023438c-4.421875 0-8-3.574219-8-8v-29.832032c0-4.421875 3.578125-8 8-8 4.425781 0 8 3.578125 8 8v29.832032c0 4.417968-3.574219 8-8 8zm0 0"/><path d="m240.011719 360.023438c-4.421875 0-8-3.574219-8-8v-29.832032c0-4.421875 3.578125-8 8-8 4.425781 0 8 3.578125 8 8v29.832032c0 4.417968-3.574219 8-8 8zm0 0"/><path d="m184.011719 344.03125c-70.574219 0-128-57.421875-128-128 0-4.414062 3.578125-8 8-8 4.425781 0 8 3.585938 8 8 0 61.761719 50.242187 112 112 112 61.761719 0 112-50.238281 112-112 0-4.414062 3.578125-8 8-8 4.425781 0 8 3.585938 8 8 0 70.578125-57.421875 128-128 128zm0 0"/><path d="m64.011719 224.03125c-4.421875 0-8-3.582031-8-8v-40.597656c0-4.417969 3.578125-8 8-8 4.425781 0 8 3.582031 8 8v40.597656c0 4.417969-3.574219 8-8 8zm0 0"/><path d="m304.011719 224.03125c-4.421875 0-8-3.582031-8-8v-40.605469c0-4.417969 3.578125-8 8-8 4.425781 0 8 3.582031 8 8v40.605469c0 4.417969-3.574219 8-8 8zm0 0"/><path d="m140.476562 392.039062c-2.824218 0-5.550781-1.496093-7.015624-4.136718-2.136719-3.871094-.730469-8.742188 3.144531-10.871094l43.542969-24.015625c3.878906-2.128906 8.742187-.71875 10.871093 3.144531 2.136719 3.871094.726563 8.742188-3.144531 10.871094l-43.542969 24.015625c-1.222656.671875-2.550781.992187-3.855469.992187zm0 0"/><path d="m227.546875 392.039062c-1.304687 0-2.632813-.320312-3.855469-.992187l-43.542968-24.015625c-3.863282-2.136719-5.273438-7-3.144532-10.871094 2.136719-3.855468 7-5.265625 10.871094-3.144531l43.546875 24.015625c3.863281 2.136719 5.269531 7 3.140625 10.871094-1.453125 2.640625-4.191406 4.136718-7.015625 4.136718zm0 0"/><path d="m96.011719 392.039062c-2.046875 0-4.097657-.78125-5.65625-2.34375-3.128907-3.128906-3.128907-8.183593 0-11.3125l32-32.015624c3.128906-3.128907 8.183593-3.128907 11.3125 0 3.128906 3.128906 3.128906 8.183593 0 11.3125l-32 32.015624c-1.558594 1.5625-3.609375 2.34375-5.65625 2.34375zm0 0"/><path d="m128.011719 424.023438c-2.046875 0-4.097657-.785157-5.65625-2.34375l-32-31.984376c-3.128907-3.128906-3.128907-8.183593 0-11.3125 3.128906-3.125 8.183593-3.125 11.3125 0l32 31.984376c3.128906 3.128906 3.128906 8.183593 0 11.3125-1.558594 1.558593-3.609375 2.34375-5.65625 2.34375zm0 0"/><path d="m112.011719 440.023438c-2.046875 0-4.097657-.785157-5.65625-2.34375-3.128907-3.128907-3.128907-8.183594 0-11.3125l16-16c3.128906-3.128907 8.183593-3.128907 11.3125 0 3.128906 3.128906 3.128906 8.183593 0 11.3125l-16 16c-1.558594 1.558593-3.609375 2.34375-5.65625 2.34375zm0 0"/><path d="m160.019531 504.023438c-2.441406 0-4.832031-1.101563-6.40625-3.199219l-48-64c-2.65625-3.527344-1.9375-8.542969 1.597657-11.191407 3.527343-2.65625 8.535156-1.945312 11.191406 1.597657l48 64c2.65625 3.53125 1.9375 8.546875-1.597656 11.195312-1.433594 1.070313-3.113282 1.597657-4.785157 1.597657zm0 0"/><path d="m184.011719 504.023438c-3.199219 0-6.222657-1.933594-7.457031-5.101563l-56-144c-1.597657-4.121094.441406-8.753906 4.554687-10.355469 4.101563-1.597656 8.75.441406 10.351563 4.554688l56 144c1.597656 4.117187-.441407 8.75-4.554688 10.351562-.949219.375-1.925781.550782-2.894531.550782zm0 0"/><path d="m272.011719 392.039062c-2.046875 0-4.097657-.78125-5.65625-2.34375l-32-32.015624c-3.128907-3.128907-3.128907-8.183594 0-11.3125 3.128906-3.128907 8.183593-3.128907 11.3125 0l32 32.015624c3.128906 3.128907 3.128906 8.183594 0 11.3125-1.558594 1.5625-3.609375 2.34375-5.65625 2.34375zm0 0"/><path d="m240.011719 424.023438c-2.046875 0-4.097657-.785157-5.65625-2.34375-3.128907-3.128907-3.128907-8.183594 0-11.3125l32-31.984376c3.128906-3.125 8.183593-3.125 11.3125 0 3.128906 3.128907 3.128906 8.183594 0 11.3125l-32 31.984376c-1.558594 1.558593-3.609375 2.34375-5.65625 2.34375zm0 0"/><path d="m256.011719 440.023438c-2.046875 0-4.097657-.785157-5.65625-2.34375l-16-16c-3.128907-3.128907-3.128907-8.183594 0-11.3125 3.128906-3.128907 8.183593-3.128907 11.3125 0l16 16c3.128906 3.128906 3.128906 8.183593 0 11.3125-1.558594 1.558593-3.609375 2.34375-5.65625 2.34375zm0 0"/><path d="m208.003906 504.023438c-1.671875 0-3.351562-.519532-4.792968-1.597657-3.535157-2.648437-4.253907-7.664062-1.597657-11.195312l48-64c2.65625-3.535157 7.664063-4.246094 11.191407-1.597657 3.535156 2.648438 4.253906 7.664063 1.597656 11.191407l-48 64c-1.558594 2.097656-3.957032 3.199219-6.398438 3.199219zm0 0"/><path d="m184.011719 504.023438c-.96875 0-1.945313-.167969-2.894531-.542969-4.121094-1.601563-6.160157-6.234375-4.554688-10.351563l56-144c1.59375-4.128906 6.242188-6.167968 10.351562-4.554687 4.121094 1.601562 6.160157 6.234375 4.554688 10.355469l-56 144c-1.234375 3.148437-4.257812 5.09375-7.457031 5.09375zm0 0"/><path d="m296.011719 376.039062h-40c-4.421875 0-8-3.574218-8-8 0-4.421874 3.578125-8 8-8h40c4.425781 0 8 3.578126 8 8 0 4.425782-3.574219 8-8 8zm0 0"/><path d="m159.125 440.023438c-1.039062 0-2.097656-.199219-3.113281-.632813-4.070313-1.71875-5.976563-6.414063-4.253907-10.480469l16.886719-39.980468c1.71875-4.074219 6.414063-5.976563 10.480469-4.257813 4.070312 1.71875 5.976562 6.417969 4.253906 10.480469l-16.886718 39.984375c-1.296876 3.046875-4.257813 4.886719-7.367188 4.886719zm0 0"/><path d="m208.898438 440.023438c-3.117188 0-6.078126-1.832032-7.367188-4.886719l-16.886719-40c-1.71875-4.074219.183594-8.761719 4.253907-10.480469 4.066406-1.71875 8.761718.175781 10.480468 4.253906l16.890625 40c1.71875 4.074219-.183593 8.761719-4.257812 10.480469-1.015625.425781-2.070313.632813-3.113281.632813zm0 0"/><path d="m192.011719 400.039062h-16c-4.421875 0-8-3.574218-8-8 0-4.421874 3.578125-8 8-8h16c4.425781 0 8 3.578126 8 8 0 4.425782-3.574219 8-8 8zm0 0"/><path d="m192.011719 400.039062c-1.832031 0-3.679688-.625-5.183594-1.910156-3.367187-2.855468-3.769531-7.914062-.894531-11.273437l16-18.785157c2.855468-3.367187 7.910156-3.773437 11.269531-.894531 3.367187 2.855469 3.769531 7.914063.898437 11.273438l-16 18.78125c-1.585937 1.847656-3.832031 2.808593-6.089843 2.808593zm0 0"/><path d="m176.011719 400.039062c-2.253907 0-4.503907-.949218-6.085938-2.816406l-16-18.78125c-2.867187-3.363281-2.472656-8.417968.894531-11.273437 3.367188-2.871094 8.414063-2.472657 11.273438.894531l16 18.785156c2.863281 3.359375 2.46875 8.417969-.898438 11.273438-1.503906 1.285156-3.351562 1.917968-5.183593 1.917968zm0 0"/><path d="m208.011719 303.976562c-2.046875 0-4.097657-.785156-5.65625-2.34375l-5.65625-5.65625h-25.375l-5.65625 5.65625c-3.128907 3.128907-8.183594 3.128907-11.3125 0-3.128907-3.128906-3.128907-8.183593 0-11.3125l8-8c1.503906-1.503906 3.527343-2.34375 5.65625-2.34375h32c2.128906 0 4.160156.839844 5.65625 2.34375l8 8c3.128906 3.128907 3.128906 8.183594 0 11.3125-1.558594 1.558594-3.609375 2.34375-5.65625 2.34375zm0 0"/><path d="m160.011719 303.976562c-44.113281 0-80-35.886718-80-80 0-4.417968 3.578125-8 8-8 4.425781 0 8 3.582032 8 8 0 35.289063 28.710937 64 64 64 4.425781 0 8 3.574219 8 8 0 4.421876-3.574219 8-8 8zm0 0"/><path d="m88.011719 231.976562c-4.421875 0-8-3.585937-8-8 0-8.824218-7.175781-16-16-16-4.421875 0-8-3.585937-8-8 0-4.417968 3.578125-8 8-8 17.648437 0 32 14.351563 32 32 0 4.414063-3.574219 8-8 8zm0 0"/><path d="m208.011719 303.976562c-4.421875 0-8-3.578124-8-8 0-4.425781 3.578125-8 8-8 35.289062 0 64-28.710937 64-64 0-4.417968 3.578125-8 8-8 4.425781 0 8 3.582032 8 8 0 44.101563-35.886719 80-80 80zm0 0"/><path d="m280.011719 231.976562c-4.421875 0-8-3.585937-8-8 0-17.648437 14.351562-32 32-32 4.425781 0 8 3.582032 8 8 0 4.414063-3.574219 8-8 8-8.824219 0-16 7.175782-16 16 0 4.414063-3.574219 8-8 8zm0 0"/><path d="m184.011719 192.023438c-7.511719 0-184.0000002-.457032-184.0000002-40 0-9.246094 7.0625002-22.65625 68.1679692-32.183594 4.457031-.679688 8.464843 2.3125 9.144531 6.664062.679687 4.367188-2.304688 8.457032-6.671875 9.144532-38.328125 5.984374-51.632813 13.351562-54.320313 16.40625 6.945313 8.953124 66.414063 23.96875 167.6875 23.96875 101.273438 0 160.746094-15.015626 167.6875-23.96875-2.6875-3.054688-15.992187-10.429688-54.328125-16.414063-4.367187-.679687-7.351562-4.769531-6.671875-9.136719.679688-4.359375 4.714844-7.351562 9.144531-6.664062 61.089844 9.535156 68.160157 22.929687 68.160157 32.183594 0 39.542968-176.488281 40-184 40zm0 0"/><path d="m64.019531 160.023438c-.574219 0-1.160156-.0625-1.742187-.191407-4.3125-.960937-7.035156-5.230469-6.082032-9.542969l32.03125-144.023437c.96875-4.3125 5.265626-7.007813 9.546876-6.074219 4.3125.960938 7.03125 5.234375 6.078124 9.542969l-32.03125 144.027344c-.832031 3.726562-4.136718 6.261719-7.800781 6.261719zm0 0"/><path d="m304.003906 160.023438c-3.664062 0-6.96875-2.535157-7.808594-6.261719l-32.023437-144.027344c-.953125-4.308594 1.769531-8.589844 6.082031-9.542969 4.308594-.945312 8.574219 1.761719 9.542969 6.074219l32.03125 144.023437c.953125 4.3125-1.769531 8.589844-6.082031 9.542969-.582032.128907-1.167969.191407-1.742188.191407zm0 0"/><path d="m184.011719 40.007812c-15.886719 0-25.351563-5.367187-34.503907-10.558593-11.113281-6.304688-23.703124-13.449219-53.464843-13.449219-4.421875 0-8-3.585938-8-8s3.578125-8 8-8c33.984375 0 49.167969 8.617188 61.359375 15.527344 8.671875 4.929687 14.945312 8.480468 26.609375 8.480468 11.664062 0 17.921875-3.550781 26.578125-8.472656 12.191406-6.917968 27.367187-15.535156 61.390625-15.535156 4.421875 0 8 3.585938 8 8s-3.578125 8-8 8c-29.800781 0-42.382813 7.152344-53.488281 13.457031-9.144532 5.183594-18.59375 10.550781-34.480469 10.550781zm0 0"/><path d="m304.011719 160.023438h-240c-4.421875 0-8-3.582032-8-8 0-4.414063 3.578125-8 8-8h240c4.425781 0 8 3.585937 8 8 0 4.417968-3.574219 8-8 8zm0 0"/><path d="m296.890625 128.023438h-225.757813c-4.425781 0-8-3.582032-8-8 0-4.414063 3.574219-8 8-8h225.757813c4.425781 0 8 3.585937 8 8 0 4.417968-3.574219 8-8 8zm0 0"/><path d="m292.011719 463.839844c-11.03125 0-20-8.96875-20-20 0-4.425782 3.578125-8 8-8 4.425781 0 8 3.574218 8 8 0 2.199218 1.800781 4 4 4s4-1.800782 4-4c0-4.425782 3.578125-8 8-8 4.425781 0 8 3.574218 8 8 0 11.03125-8.96875 20-20 20zm0 0"/><path d="m292.011719 480.015625c-4.421875 0-8-3.574219-8-8v-16.167969c0-4.421875 3.578125-8 8-8 4.425781 0 8 3.578125 8 8v16.167969c0 4.417969-3.574219 8-8 8zm0 0"/><path d="m280.011719 451.839844c-4.421875 0-8-3.574219-8-8v-20c0-4.425782 3.578125-8 8-8 4.425781 0 8 3.574218 8 8v20c0 4.425781-3.574219 8-8 8zm0 0"/><path d="m304.011719 431.839844h-24c-4.421875 0-8-3.574219-8-8 0-4.425782 3.578125-8 8-8h24c4.425781 0 8 3.574218 8 8 0 4.425781-3.574219 8-8 8zm0 0"/><path d="m304.011719 451.839844c-4.421875 0-8-3.574219-8-8v-20c0-4.425782 3.578125-8 8-8 4.425781 0 8 3.574218 8 8v20c0 4.425781-3.574219 8-8 8zm0 0"/></svg>