<svg id="Capa_1" enable-background="new 0 0 512.002 512.002" height="512" viewBox="0 0 512.002 512.002" width="512" xmlns="http://www.w3.org/2000/svg"><g><path d="m355.401 90.333c9.15 0 16.567 7.417 16.567 16.567v33.133c0 9.15-7.417 16.567-16.567 16.567h-198.8c-9.15 0-16.567-7.417-16.567-16.567v-33.133c0-9.149 7.417-16.567 16.567-16.567z" fill="#f8aa8b"/><path d="m330.551 338.833 99.654 26.574c14.504 3.868 24.596 17.004 24.596 32.015v98.795c0 4.575-3.709 8.283-8.283 8.283h-381.034c-4.575 0-8.283-3.709-8.283-8.283v-98.795c0-15.011 10.092-28.147 24.596-32.015l99.654-26.574h74.55z" fill="#d0e2ed"/><path d="m454.801 496.217v-98.795c0-15.011-10.092-28.147-24.596-32.015l-99.654-26.574-35.55 165.667h151.517c4.574 0 8.283-3.709 8.283-8.283z" fill="#118df0"/><path d="m57.201 496.217v-98.795c0-15.011 10.092-28.147 24.596-32.015l99.654-26.574 35.55 165.667h-151.517c-4.574 0-8.283-3.709-8.283-8.283z" fill="#118df0"/><path d="m430.205 365.408-21.467-5.725c13.676 4.358 23.063 17.087 23.063 31.563v104.971c0 4.575-3.708 8.283-8.283 8.283h23c4.575 0 8.283-3.709 8.283-8.283v-98.795c0-15.011-10.092-28.147-24.596-32.014z" fill="#1179f0"/><path d="m239.434 405.1-8.283 99.4h49.7l-8.283-99.4.779-3.897h-34.692z" fill="#ff4b68"/><path d="m238.655 401.203.779 3.897-1.916 23h36.966l-1.916-23 .779-3.897z" fill="#f73152"/><path d="m214.584 264h82.833v84.333h-82.833z" fill="#f8c09c"/><path d="m214.584 301.024c12.187 7.053 26.324 11.109 41.417 11.109s29.23-4.057 41.417-11.109v-37.023l-82.834-.001z" fill="#f8aa8b"/><path d="m338.834 65.333v140.967c0 45.748-37.086 82.833-82.833 82.833s-82.833-37.086-82.833-82.833v-140.967z" fill="#f8c09c"/><g><path d="m272.567 238.65h-33.133c-4.143 0-7.5-3.357-7.5-7.5s3.357-7.5 7.5-7.5h33.133c4.143 0 7.5 3.357 7.5 7.5s-3.357 7.5-7.5 7.5z" fill="#f8aa8b"/></g><path d="m330.551 338.833h-149.1l16.15 35.889 19.477 15.613c3.296 2.637 8.047 2.374 11.032-.611l27.891-27.891 27.891 27.891c2.984 2.984 7.736 3.248 11.032.611l19.354-15.339z" fill="#aabfcf"/><g fill="#d0e2ed"><path d="m181.451 338.833 35.627 28.502c3.296 2.637 8.047 2.374 11.032-.611l27.891-27.891-41.417-33.133z"/><path d="m297.418 305.7-41.417 33.133 27.891 27.891c2.984 2.984 7.736 3.248 11.032.611l35.627-28.502z"/></g><path d="m256.001 338.833-24.85 24.85 8.283 41.417h33.134l8.283-41.417z" fill="#ff4b68"/><path d="m234.984 382.85 21.017-21.017 21.017 21.017 3.833-19.167-24.85-24.85-24.85 24.85z" fill="#f73152"/><path d="m206.301 7.5c-18.299 0-33.133 14.834-33.133 33.133v49.7h24.85c4.575 0 8.283-3.708 8.283-8.283 0-4.575 3.709-8.283 8.283-8.283h82.833c4.575 0 8.283 3.708 8.283 8.283 0 4.575 3.709 8.283 8.283 8.283h24.85v-49.7c.001-18.299-14.833-33.133-33.132-33.133z" fill="#887575"/><path d="m256.001 289.133c45.748 0 82.833-37.086 82.833-82.833v-57.983c0 27.449-22.251 49.7-49.7 49.7h-66.267c-27.449 0-49.7-22.251-49.7-49.7v57.983c.001 45.748 37.086 82.833 82.834 82.833z" fill="#887575"/><path d="m206.301 504.5-52.869-60.422c-2.587-2.957-1.682-7.561 1.832-9.318l15.454-7.727c4.422-2.211 4.422-8.522 0-10.733l-17.322-8.661c-2.849-1.424-4.088-4.826-2.823-7.749l25.837-59.712 5.042-1.344 74.55 165.667h-49.701z" fill="#394d5c"/><path d="m256.001 504.5 74.55-165.667 5.042 1.344 25.837 59.712c1.265 2.923.025 6.325-2.823 7.749l-17.322 8.661c-4.422 2.211-4.422 8.522 0 10.733l15.454 7.727c3.514 1.757 4.419 6.361 1.832 9.318l-52.87 60.423z" fill="#394d5c"/><g fill="#8bdeff"><path d="m231.434 156.6h-25.417c-4.418 0-8-3.582-8-8v-25.133h41.417v25.133c0 4.418-3.581 8-8 8z"/><path d="m305.984 156.6h-25.417c-4.418 0-8-3.582-8-8v-25.133h41.417v25.133c0 4.418-3.581 8-8 8z"/></g></g><g><path d="m432.138 358.16-97.708-26.055-29.512-29.512v-20.385c24.901-16.102 41.417-44.112 41.417-75.909v-42.2h9.066c13.27 0 24.067-10.796 24.067-24.066v-33.133c0-13.271-10.796-24.067-24.067-24.067h-9.066v-42.2c0-22.405-18.228-40.633-40.634-40.633h-99.4c-22.405 0-40.633 18.228-40.633 40.633v42.2h-9.066c-13.271 0-24.067 10.797-24.067 24.067v33.133c0 13.27 10.796 24.066 24.067 24.066h9.066v42.2c0 10.547 1.803 20.882 5.359 30.719 1.104 3.054 3.984 4.952 7.054 4.952.846 0 1.708-.145 2.549-.449 3.896-1.408 5.912-5.707 4.503-9.603-2.963-8.197-4.466-16.816-4.466-25.619v-19.415c10.466 11.442 25.508 18.632 42.2 18.632h66.267c16.692 0 31.734-7.19 42.2-18.632v19.416c0 41.539-33.794 75.333-75.333 75.333-21.404 0-41.872-9.154-56.155-25.115-2.763-3.087-7.505-3.349-10.59-.587-3.087 2.763-3.35 7.504-.587 10.591 5.454 6.094 11.662 11.356 18.416 15.704v20.368l-29.512 29.512-97.709 26.054c-17.76 4.736-30.163 20.882-30.163 39.262v98.795c0 8.703 7.081 15.783 15.783 15.783h190.475c.012 0 .025.002.037.002h.004.004c.012 0 .025-.002.038-.002h141.709c4.142 0 7.5-3.357 7.5-7.5s-3.358-7.5-7.5-7.5h-75.522l47.099-53.828c1.529-1.748 2.163-4.107 1.714-6.386s-1.927-4.222-4.005-5.261l-19.717-9.858 19.717-9.859c3.561-1.78 5.11-6.032 3.529-9.686l-21.94-50.705 79.645 21.238c11.204 2.987 19.028 13.173 19.028 24.768v98.795c0 .432-.352.783-.783.783h-18.766c-4.142 0-7.5 3.357-7.5 7.5s3.358 7.5 7.5 7.5h18.767c8.703 0 15.783-7.08 15.783-15.783v-98.795c.001-18.381-12.403-34.526-30.162-39.263zm-67.67-251.26v33.133c0 4.999-4.067 9.066-9.067 9.066h-9.066v-51.266h9.066c4.999 0 9.067 4.067 9.067 9.067zm-84.4 24.067h26.417v17.633c0 .275-.224.5-.5.5h-25.417c-.276 0-.5-.225-.5-.5zm33.916-15h-41.417-33.134-41.416-17.35v-18.134h17.35c8.703 0 15.783-7.08 15.783-15.783 0-.432.352-.783.784-.783h82.833c.432 0 .784.352.784.783 0 8.703 7.08 15.783 15.783 15.783h17.35v18.134zm-108.466 15h26.416v17.633c0 .275-.224.5-.5.5h-25.416c-.276 0-.5-.225-.5-.5zm-24.851-90.334c0-14.134 11.499-25.633 25.633-25.633h99.4c14.134 0 25.633 11.499 25.633 25.633v42.2h-17.35c-.432 0-.783-.352-.783-.783 0-8.703-7.081-15.783-15.784-15.783h-82.833c-8.703 0-15.784 7.08-15.784 15.783 0 .432-.352.783-.783.783h-17.35v-42.2zm-24.066 108.467c-4.999 0-9.067-4.067-9.067-9.066v-33.134c0-5 4.067-9.067 9.067-9.067h9.066v51.267zm132.533 41.417h-66.267c-23.269 0-42.2-18.931-42.2-42.2v-17.35h9.85v17.633c0 8.547 6.953 15.5 15.5 15.5h25.416c8.547 0 15.5-6.953 15.5-15.5v-17.633h18.134v17.633c0 8.547 6.953 15.5 15.5 15.5h25.417c8.547 0 15.5-6.953 15.5-15.5v-17.633h9.85v17.35c.001 23.269-18.931 42.2-42.2 42.2zm-79.43 306.483-49.35-56.399 24.451-12.226c2.541-1.271 4.146-3.867 4.146-6.708s-1.605-5.438-4.146-6.708l-26.786-13.394 21.293-49.21 48.847 108.549c.006.013.012.026.017.039l16.226 36.057zm16.299-120.814 5.869 29.346-1.903 22.841-28.913-64.252 11.338 9.07c2.901 2.321 6.386 3.465 9.859 3.465 1.262 0 2.519-.169 3.75-.47zm13.29-10.037 16.708-16.709 16.708 16.709-6.29 31.451h-20.837zm3.376 90.447 3.666-43.997h19.332l3.666 43.997-13.332 29.626zm39.364-28.222-1.903-22.841 5.869-29.346c1.231.301 2.488.47 3.751.47 3.472 0 6.958-1.145 9.858-3.465l11.339-9.071zm8.205-66.896c-.313.249-.759.226-1.042-.058l-3.041-3.041-18.925-18.925 29.631-23.705 22.461 22.461zm-34.237-64.845c11.99 0 23.439-2.354 33.917-6.614v12.077l-33.917 27.133-33.917-27.133v-12.092c10.67 4.325 22.175 6.629 33.917 6.629zm-40.86 19.117 29.631 23.705-18.925 18.925-3.041 3.041c-.283.282-.731.308-1.044.058l-29.083-23.268zm-150.44 180.467v-98.795c0-11.595 7.825-21.78 19.028-24.768l79.645-21.238-21.94 50.705c-1.581 3.654-.032 7.906 3.529 9.686l19.717 9.859-19.717 9.858c-2.078 1.039-3.557 2.981-4.005 5.261-.448 2.279.185 4.638 1.714 6.386l47.101 53.829h-124.289c-.431 0-.783-.352-.783-.783zm262.496-81.258c-2.541 1.27-4.146 3.867-4.146 6.708s1.605 5.438 4.146 6.708l24.451 12.226-49.35 56.399h-34.698l16.207-36.017c.015-.034.031-.067.046-.101l48.837-108.527 21.293 49.21z"/><path d="m272.568 238.65c4.142 0 7.5-3.357 7.5-7.5s-3.358-7.5-7.5-7.5h-33.134c-4.142 0-7.5 3.357-7.5 7.5s3.358 7.5 7.5 7.5z"/></g></svg>