<?xml version="1.0" encoding="iso-8859-1"?>
<!-- Generator: Adobe Illustrator 19.0.0, SVG Export Plug-In . SVG Version: 6.00 Build 0)  -->
<svg xmlns="http://www.w3.org/2000/svg" xmlns:xlink="http://www.w3.org/1999/xlink" version="1.1" id="Layer_1" x="0px" y="0px" viewBox="0 0 510.128 510.128" style="enable-background:new 0 0 510.128 510.128;" xml:space="preserve" width="512" height="512">
<g>
	<path style="fill:#BBBEC7;" d="M298.898,28.345C291.347,11.651,274.546,0,255.064,0s-36.282,11.651-43.834,28.345H298.898z"/>
	<path style="fill:#5F6270;" d="M298.898,28.345C291.347,11.651,274.546,0,255.064,0v28.345H298.898z"/>
	<path style="fill:#BBBEC7;" d="M255.064,22.043c-89.447,0-162.217,72.77-162.217,162.217v258.518c0,8.284,6.716,15,15,15h294.434   c8.284,0,15-6.716,15-15V184.259C417.281,94.813,344.511,22.043,255.064,22.043z"/>
	<path style="fill:#5F6270;" d="M255.064,22.043v435.735h147.217c8.284,0,15-6.716,15-15V184.259   C417.281,94.813,344.511,22.043,255.064,22.043z"/>
	<path style="fill:#5F6270;" d="M434.883,427.778H75.245c-8.284,0-15,6.716-15,15v52.351c0,8.284,6.716,15,15,15h359.639   c8.284,0,15-6.716,15-15v-52.351C449.883,434.494,443.168,427.778,434.883,427.778z"/>
	<path style="fill:#343642;" d="M434.883,427.778H255.064v82.351h179.819c8.284,0,15-6.716,15-15v-52.351   C449.883,434.494,443.168,427.778,434.883,427.778z"/>
	<path style="fill:#5F6270;" d="M332.978,220.971h-34.411h-17.64h-51.726h-10.153h-41.897c-17.194,0-31.132,13.938-31.132,31.132v0   c0,21.866,17.726,39.592,39.592,39.592l0,0c21.622,0,40.476-6.653,50.436-20.837c4.234-6.029,11.04-9.728,18.408-9.728h1.221   c7.367,0,14.174,3.699,18.408,9.728c9.96,14.184,28.814,20.837,50.436,20.837l0,0c21.866,0,39.592-17.726,39.592-39.592v0   C364.11,234.91,350.172,220.971,332.978,220.971z"/>
	<path style="fill:#18191F;" d="M332.978,220.971h-77.914v40.159h0.611c7.367,0,14.174,3.699,18.408,9.729   c9.96,14.184,28.814,20.837,50.436,20.837c21.866,0,39.592-17.726,39.592-39.592l0,0   C364.11,234.91,350.172,220.971,332.978,220.971z"/>
	<path style="fill:#5F6270;" d="M281.888,390.248h-53.647c-15.584,0-28.218-12.634-28.218-28.218v0   c0-15.584,12.634-28.218,28.218-28.218h53.647c15.584,0,28.218,12.634,28.218,28.218v0   C310.106,377.614,297.472,390.248,281.888,390.248z"/>
	<path style="fill:#18191F;" d="M281.888,333.812h-26.823v56.436h26.823c15.584,0,28.218-12.634,28.218-28.218v0   C310.106,346.445,297.472,333.812,281.888,333.812z"/>
</g>















</svg>
