<?xml version="1.0" encoding="iso-8859-1"?>
<!-- Generator: Adobe Illustrator 19.0.0, SVG Export Plug-In . SVG Version: 6.00 Build 0)  -->
<svg version="1.1" id="Capa_1" xmlns="http://www.w3.org/2000/svg" xmlns:xlink="http://www.w3.org/1999/xlink" x="0px" y="0px"
	 viewBox="0 0 512.118 512.118" style="enable-background:new 0 0 512.118 512.118;" xml:space="preserve">
<path style="fill:#455A64;" d="M511.669,498.811l-12.8-51.2c-6.073-24.838-24.485-44.813-48.747-52.885l-93.867-31.275
	c-22.891-9.536-33.365-46.4-35.627-60.395c17.442-14.504,28.665-35.14,31.36-57.664c-0.385-3.847,0.523-7.713,2.581-10.987
	c3.326-0.833,6.049-3.215,7.317-6.4c6.142-14.872,9.997-30.588,11.435-46.613c0.003-0.871-0.104-1.738-0.32-2.581
	c-1.528-6.227-5.189-11.722-10.347-15.531v-56.555c0-34.368-10.496-48.469-21.547-56.64c-2.112-16.555-19.84-50.027-85.12-50.027
	c-57.917,2.332-104.335,48.75-106.667,106.667v56.555c-5.158,3.809-8.819,9.304-10.347,15.531c-0.216,0.843-0.323,1.711-0.32,2.581
	c1.436,16.033,5.291,31.756,11.435,46.635c0.924,3.015,3.347,5.334,6.4,6.123c1.195,0.597,3.435,3.691,3.435,11.243
	c2.711,22.588,13.999,43.271,31.531,57.771c-2.24,13.973-12.651,50.816-34.901,60.117l-94.699,31.445
	c-24.243,8.071-42.643,28.026-48.725,52.843l-12.8,51.2c-1.449,5.71,2.005,11.514,7.715,12.963c0.853,0.217,1.73,0.327,2.61,0.328
	h490.667c5.891-0.002,10.665-4.779,10.664-10.67C511.986,500.52,511.879,499.654,511.669,498.811z"/>
<path d="M501.322,512.059c-4.888-0.011-9.142-3.343-10.325-8.085l-12.8-51.2c-4.386-17.714-17.556-31.939-34.88-37.675
	l-94.656-31.552c-37.696-15.701-50.005-71.275-50.005-84.821c0.005-3.18,1.429-6.191,3.883-8.213
	c14.729-10.954,24.773-27.071,28.117-45.12c-0.97-11.205,3.86-22.127,12.8-28.949c4.218-10.747,7.084-21.976,8.533-33.429
	c-0.284-0.735-0.695-1.414-1.216-2.005c-5.148,0.098-9.401-3.995-9.499-9.143c-0.007-0.38,0.009-0.761,0.048-1.139v-64
	c0-31.403-10.091-37.803-14.4-40.533c-4.039-1.991-6.862-5.815-7.573-10.261c-0.112-1.404,0.047-2.816,0.469-4.16
	c-1.515-8.448-14.315-30.379-63.829-30.379c-46.087,2.425-82.908,39.247-85.333,85.333v64c0,5.891-4.776,10.667-10.667,10.667
	c0.512,0,0.32,0.725,0,1.536c1.432,11.478,4.298,22.73,8.533,33.493c8.947,6.827,13.777,17.759,12.8,28.971
	c3.344,18.049,13.388,34.166,28.117,45.12c2.454,2.022,3.877,5.034,3.883,8.213c0,13.547-12.309,69.12-49.237,84.501l-95.381,31.829
	c-17.324,5.736-30.494,19.96-34.88,37.675l-12.8,51.2c-1.558,5.681-7.426,9.024-13.108,7.466c-5.496-1.507-8.837-7.069-7.586-12.629
	l12.8-51.2c6.082-24.817,24.482-44.772,48.725-52.843l94.677-31.552c22.251-9.301,32.661-46.144,34.901-60.117
	c-17.476-14.488-28.73-35.126-31.445-57.664c0-7.552-2.133-10.667-3.435-11.243c-3.053-0.789-5.476-3.108-6.4-6.123
	c-6.166-14.875-10.043-30.598-11.499-46.635c-0.003-0.871,0.104-1.738,0.32-2.581c1.528-6.227,5.189-11.722,10.347-15.531v-56.555
	c2.332-57.917,48.75-104.335,106.667-106.667c65.28,0,83.008,33.472,85.12,50.027c11.051,8.171,21.547,22.272,21.547,56.64v56.555
	c5.158,3.809,8.819,9.304,10.347,15.531c0.216,0.843,0.323,1.711,0.32,2.581c-1.436,16.033-5.291,31.756-11.435,46.635
	c-1.269,3.185-3.991,5.567-7.317,6.4c-2.058,3.273-2.966,7.139-2.581,10.987c-2.713,22.588-14.001,43.27-31.531,57.771
	c2.24,13.973,12.8,50.837,35.627,60.395l94.037,31.147c24.252,8.017,42.691,27.921,48.832,52.715l12.8,51.2
	c1.52,5.691-1.861,11.538-7.553,13.058C503.263,511.949,502.294,512.07,501.322,512.059z"/>
<g>
</g>
<g>
</g>
<g>
</g>
<g>
</g>
<g>
</g>
<g>
</g>
<g>
</g>
<g>
</g>
<g>
</g>
<g>
</g>
<g>
</g>
<g>
</g>
<g>
</g>
<g>
</g>
<g>
</g>
</svg>
