<svg id="_x33_0" enable-background="new 0 0 64 64" height="512" viewBox="0 0 64 64" width="512" xmlns="http://www.w3.org/2000/svg"><g><g><g><path d="m43.27 51.4-2.1 9.81c-.1.46-.51.79-.98.79h-16.38c-.47 0-.88-.33-.98-.79l-2.1-9.81-.47-2.17c-.17-.82-.26-1.65-.26-2.49 0-1.15.17-2.3.5-3.41l2.49-8.28c.12-.06.25-.11.38-.14l3.63-.91v4c0 1.1.9 2 2 2h6c1.1 0 2-.9 2-2v-4l3.63.91c.13.03.26.08.38.14l2.49 8.28c.33 1.11.5 2.26.5 3.41 0 .84-.09 1.67-.26 2.49z" fill="#4fc1e9"/></g><g><path d="m43.36 19.15c-.55-.7-1.4-1.15-2.36-1.15h-1v-1.37c0-.73-.3-1.38-.77-1.86-.48-.47-1.13-.77-1.86-.77-.25 0-.49.03-.72.1l-6.18 1.77c-.31.08-.64.13-.96.13-1.44 0-2.68-.87-3.22-2.11-1.4.89-2.26 2.43-2.29 4.11h-1c-.86 0-1.63.36-2.18.94l-1.54-.51c-.77-.26-1.28-.97-1.28-1.78 0-.42.14-.83.41-1.16l1.41-1.76-1.41-2.12c-.27-.4-.41-.87-.41-1.35 0-2.61 1.48-5 3.81-6.17l.12-.06c2.68-1.33 5.63-2.03 8.62-2.03h1.29c1.69 0 3.37.22 4.99.64 1.63.42 3.2 1.04 4.68 1.86 1.39.77 2.51 1.89 3.28 3.21.78 1.32 1.21 2.85 1.21 4.43 0 .57-.12 1.13-.34 1.65z" fill="#656d78"/></g><g><path d="m10 30c0 1.1.9 2 2 2h-2-4v-4h4z" fill="#ccd1d9"/></g><g><path d="m25.53 28c.9 1 2.12 1.7 3.51 1.92l-1.04 2.08h-12c1.1 0 2-.9 2-2v-2z" fill="#ccd1d9"/></g><g><path d="m48 32h-12l-1.04-2.08c1.39-.22 2.61-.92 3.51-1.92h7.53v2c0 1.1.9 2 2 2z" fill="#ccd1d9"/></g><g><path d="m58 28v4h-4-2c1.1 0 2-.9 2-2v-2z" fill="#ccd1d9"/></g><g><path d="m6 32v5c0 .55-.45 1-1 1h-2c-.55 0-1-.45-1-1v-14c0-.55.45-1 1-1h2c.55 0 1 .45 1 1v5z" fill="#aab2bd"/></g><g><path d="m62 23v14c0 .55-.45 1-1 1h-2c-.55 0-1-.45-1-1v-5-4-5c0-.55.45-1 1-1h2c.55 0 1 .45 1 1z" fill="#aab2bd"/></g><g><path d="m54 32 1.52 6.83c.32 1.44.48 2.92.48 4.39 0 3.14-.73 6.24-2.14 9.05l-.38.78c-.91 1.81-2.76 2.95-4.78 2.95-1.12 0-2.17-.34-3.04-.95-.88-.61-1.57-1.47-1.96-2.51l-.43-1.14.47-2.17c.17-.82.26-1.65.26-2.49 0-1.15-.17-2.3-.5-3.41l-2.49-8.28c.1.04.2.1.3.17l6.69 4.78v-8h4z" fill="#f0d0b4"/></g><g><path d="m54 28v2c0 1.1-.9 2-2 2h-4c-1.1 0-2-.9-2-2v-2c0-1.1.9-2 2-2h4c1.1 0 2 .9 2 2z" fill="#f0d0b4"/></g><g><path d="m24 18v.09 5.91h-1c-.83 0-1.58-.34-2.12-.88s-.88-1.29-.88-2.12c0-.8.32-1.53.82-2.06.55-.58 1.32-.94 2.18-.94z" fill="#f0d0b4"/></g><g><path d="m41 18c.96 0 1.81.45 2.36 1.15.4.51.64 1.15.64 1.85 0 .83-.34 1.58-.88 2.12s-1.29.88-2.12.88h-1v-6z" fill="#f0d0b4"/></g><g><path d="m36 32 1 2v4c0 1.1-.9 2-2 2h-6c-1.1 0-2-.9-2-2v-4l1-2 1.04-2.08c.31.05.63.08.96.08h4c.33 0 .65-.03.96-.08z" fill="#f0d0b4"/></g><g><path d="m40 18v6c0 1.54-.58 2.94-1.53 4-.9 1-2.12 1.7-3.51 1.92-.31.05-.63.08-.96.08h-4c-.33 0-.65-.03-.96-.08-1.39-.22-2.61-.92-3.51-1.92-.95-1.06-1.53-2.46-1.53-4v-5.91c0-.03 0-.06 0-.09.03-1.68.89-3.22 2.29-4.11.54 1.24 1.78 2.11 3.22 2.11.32 0 .65-.05.96-.13l6.18-1.77c.23-.07.47-.1.72-.1.73 0 1.38.3 1.86.77.47.48.77 1.13.77 1.86z" fill="#f0d0b4"/></g><g><path d="m16 40 6.69-4.78c.1-.07.2-.13.3-.17l-2.49 8.28c-.33 1.11-.5 2.26-.5 3.41 0 .84.09 1.67.26 2.49l.47 2.17-.43 1.14c-.39 1.04-1.08 1.9-1.96 2.51-.87.61-1.92.95-3.04.95-2.02 0-3.87-1.14-4.78-2.95l-.38-.78c-1.41-2.81-2.14-5.91-2.14-9.05 0-1.47.16-2.95.48-4.39l1.52-6.83h2 4z" fill="#f0d0b4"/></g><g><path d="m18 28v2c0 1.1-.9 2-2 2h-4c-1.1 0-2-.9-2-2v-2c0-1.1.9-2 2-2h4c1.1 0 2 .9 2 2z" fill="#f0d0b4"/></g></g><g><g><circle cx="28" cy="20" fill="#fff" r="1"/></g><g><circle cx="36" cy="20" fill="#fff" r="1"/></g><g><circle cx="28" cy="20" r="1"/><circle cx="36" cy="20" r="1"/><path d="m33 25h-4v2h4c2.206 0 4-1.794 4-4h-2c0 1.103-.897 2-2 2z"/><path d="m61 21h-2c-1.103 0-2 .897-2 2v4h-2.184c-.414-1.161-1.514-2-2.816-2h-4c-1.302 0-2.402.839-2.816 2h-4.869c.297-.622.504-1.294.605-2h.08c2.206 0 4-1.794 4-4 0-.701-.197-1.351-.516-1.925l2.095-4.888c.279-.65.421-1.339.421-2.049 0-3.532-1.918-6.792-5.006-8.507-3.097-1.721-6.607-2.631-10.151-2.631h-1.296c-3.129 0-6.263.74-9.062 2.139l-.118.059c-2.693 1.347-4.367 4.055-4.367 7.067 0 .68.199 1.338.576 1.902l1.005 1.507-.953 1.191c-.405.506-.628 1.142-.628 1.79 0 1.236.788 2.329 1.96 2.719l.341.114c-.191.467-.301.977-.301 1.512 0 2.206 1.794 4 4 4h.08c.102.706.308 1.378.605 2h-4.869c-.414-1.161-1.514-2-2.816-2h-4c-1.302 0-2.402.839-2.816 2h-2.184v-4c0-1.103-.897-2-2-2h-2c-1.103 0-2 .897-2 2v14c0 1.103.897 2 2 2h2c1.103 0 2-.897 2-2v-4h1.753l-1.247 5.614c-.336 1.511-.506 3.062-.506 4.608 0 3.281.775 6.565 2.242 9.5l.388.774c1.081 2.161 3.253 3.504 5.67 3.504 2.016 0 3.882-.978 5.062-2.542l1.492 6.961c.195.916 1.018 1.581 1.955 1.581h16.383c.937 0 1.76-.665 1.955-1.581l1.492-6.961c1.179 1.564 3.045 2.542 5.061 2.542 2.417 0 4.589-1.343 5.67-3.504l.388-.775c1.467-2.934 2.242-6.219 2.242-9.5 0-1.546-.17-3.096-.506-4.607l-1.247-5.614h1.753v4c0 1.103.897 2 2 2h2c1.103 0 2-.897 2-2v-14c0-1.103-.897-2-2-2zm-14 7c0-.551.448-1 1-1h4c.552 0 1 .449 1 1v2c0 .551-.448 1-1 1h-4c-.552 0-1-.449-1-1zm-5.109 6.407c-.308-.219-.648-.377-1.017-.47l-3.185-.796-.071-.141h9.382v5.057zm-5.891-.171v3.764c0 .551-.448 1-1 1h-6c-.552 0-1-.449-1-1v-3.764l1.627-3.255c.125.007.247.019.373.019h4c.126 0 .248-.012.373-.019zm-9.689-1.095-3.186.797c-.367.092-.708.25-1.015.469l-5.11 3.65v-5.057h9.382zm-7.311-4.141h6.111c.702.687 1.549 1.222 2.488 1.567l-.217.433h-8.566c.112-.314.184-.648.184-1zm15 0h-4c-2.757 0-5-2.243-5-5v-5.91c0-1.02.382-1.978 1.053-2.707.828.988 2.069 1.617 3.456 1.617.419 0 .835-.058 1.238-.173l6.172-1.764c1.022-.295 2.081.517 2.081 1.568v7.369c0 2.757-2.243 5-5 5zm4.889 0h6.111v1c0 .352.072.686.184 1h-8.566l-.217-.433c.94-.345 1.787-.88 2.488-1.567zm2.111-6v-4c1.103 0 2 .897 2 2s-.897 2-2 2zm-21.81-6.887 3.591-4.489-1.563-1.249-1.327 1.659-.652-.978c-.156-.234-.239-.508-.239-.791 0-2.25 1.25-4.271 3.262-5.277l.118-.059c2.522-1.262 5.347-1.929 8.167-1.929h1.296c3.205 0 6.379.823 9.181 2.379 2.453 1.363 3.976 3.953 3.976 6.759 0 .436-.087.86-.259 1.26l-1.774 4.14c-.583-.332-1.248-.538-1.967-.538v-.369c0-2.002-1.629-3.631-3.632-3.631-.336 0-.671.047-.997.14l-6.173 1.764c-.224.064-.456.096-.689.096-1.384 0-2.509-1.125-2.509-2.547 0-.66.268-1.307.734-1.774l1.973-1.972-1.414-1.414-1.974 1.973c-.85.852-1.319 1.984-1.319 3.225 0 .352.041.695.117 1.023-1.06.897-1.761 2.127-2.01 3.485h-.107c-.901 0-1.724.31-2.393.815l-1.015-.338c-.354-.118-.592-.448-.592-.821 0-.196.067-.388.19-.542zm1.81 4.887c0-1.103.897-2 2-2v4c-1.103 0-2-.897-2-2zm-10 7c0-.551.448-1 1-1h4c.552 0 1 .449 1 1v2c0 .551-.448 1-1 1h-4c-.552 0-1-.449-1-1zm-8 9v-14h2l.001 14zm4-8h2v1c0 .352.072.686.184 1h-2.184zm12.362 23.185c-.631 1.684-2.263 2.815-4.062 2.815-1.654 0-3.142-.919-3.881-2.399l-.388-.774c-1.329-2.658-2.031-5.634-2.031-8.605 0-1.4.154-2.804.459-4.174l1.344-6.048h4.197v17h2v-9.485l4.202-3.001-1.659 5.53c-.36 1.201-.543 2.446-.543 3.698 0 .907.097 1.815.286 2.697l.402 1.877zm20.829 8.815h-16.382l-2.567-11.98c-.161-.745-.242-1.512-.242-2.278 0-1.058.154-2.109.459-3.124l2.336-7.786 2.205-.551v2.719c0 1.654 1.346 3 3 3h6c1.654 0 3-1.346 3-3v-2.719l2.205.551 2.336 7.787c.305 1.014.459 2.066.459 3.123 0 .766-.081 1.533-.241 2.278zm14.35-21.952c.305 1.369.459 2.774.459 4.174 0 2.972-.702 5.947-2.031 8.604l-.388.775c-.739 1.48-2.227 2.399-3.881 2.399-1.799 0-3.432-1.131-4.063-2.816l-.326-.868.402-1.876c.19-.883.287-1.791.287-2.698 0-1.252-.183-2.497-.543-3.698l-1.659-5.531 4.202 3.002v9.485h2v-17h4.197zm.275-8.048c.112-.314.184-.648.184-1v-1h2v2zm6.184 6h-2v-14h2z"/></g></g></g></svg>