<svg xmlns="http://www.w3.org/2000/svg" viewBox="0 0 1321.37 306.78"><defs><style>.cls-1{opacity:0.63;}.cls-2{fill:none;stroke:#fff;stroke-miterlimit:10;stroke-width:5px;}.cls-3{fill:#ff0;}.cls-4{fill:#353535;}</style></defs><title>table-graphics</title><g id="Lager_2" data-name="Lager 2"><g class="cls-1"><path class="cls-2" d="M1618.25,484.14c-420.07,147-896.11,144.19-1315.51-2.72-.16-27.57-.74-55.13-.85-82.69,423.4,145.94,892.75,146,1316.22.24C1618.11,427.36,1618.26,455.75,1618.25,484.14Z" transform="translate(-299.38 -288.71)"/></g></g><g id="Lager_4" data-name="Lager 4"><path class="cls-3" d="M663.77,288.71a66,66,0,0,1,11.55,1.68c6.2,1.43,9.94,3.48,12.43,6.42a10.38,10.38,0,0,1,2.2,9.24c-1,4.58-5,7.92-10.53,8.6l0,.14c4.39,2.16,9.05,7.07,7.54,14.11a12.67,12.67,0,0,1-6.25,8.59c-4,2.3-10.08,2.44-18.22.55a77.18,77.18,0,0,1-9.84-2.91Q658.2,311.91,663.77,288.71Zm1.65,20.82,5.71,1.33c6.66,1.53,11.33-1,12.34-5.56,1.23-5.55-2.59-8.68-8.88-10.13a29.75,29.75,0,0,0-5.6-.86Zm-5.32,22.64a37,37,0,0,0,5.31,1.53c6.63,1.53,13.27.55,14.79-6.34,1.42-6.47-3.74-10.4-10.64-12l-5.23-1.22C662.64,321.36,661.79,325,660.1,332.17Z" transform="translate(-299.38 -288.71)"/><path class="cls-3" d="M702.89,294.15l6.28,1.29q-5.08,25.05-10.16,50.1c-2.62-.53-3.92-.79-6.53-1.34Z" transform="translate(-299.38 -288.71)"/><path class="cls-3" d="M730,351.44l.25-4.42-.22,0A13.73,13.73,0,0,1,718,350.07c-7.3-1.37-10.09-7-9.09-11.94,2.15-10.49,15.58-10.67,23.8-8.72,0-.28.07-.42.12-.71.51-2.83.62-8.06-6.58-9.4a18.59,18.59,0,0,0-9.64.81c-.27-1.75-.4-2.62-.66-4.38a23,23,0,0,1,12.1-.85c10.72,2,12.09,9.56,10.9,16.44-.9,5.13-1.35,7.7-2.24,12.84a46.59,46.59,0,0,0-.84,8.33C733.53,352.08,732.33,351.87,730,351.44Zm2.17-17.68c-7-1.41-15.26-1.73-16.53,4.92-.77,4,1.68,6.48,5,7.11a9,9,0,0,0,9.72-4.16,6.41,6.41,0,0,0,.72-1.92Z" transform="translate(-299.38 -288.71)"/><path class="cls-3" d="M771.87,356.92a26.21,26.21,0,0,1-10.69.44,17.42,17.42,0,0,1-15.06-20.44c1.82-10.46,11.59-16.91,22-15.22a23.24,23.24,0,0,1,8.62,3.11c-.86,1.85-1.3,2.78-2.17,4.63a15.51,15.51,0,0,0-7.21-2.75c-8.11-1.24-13.43,3.85-14.6,11-1.29,8,3.26,13.75,10.42,14.84a19.28,19.28,0,0,0,8.3-.5C771.61,354,771.69,355,771.87,356.92Z" transform="translate(-299.38 -288.71)"/><path class="cls-3" d="M788.42,341.51l.15,0c1-1.1,2.5-2.43,3.69-3.51,4.81-4.21,7.2-6.33,11.94-10.59,3.1.39,4.65.58,7.74.94-6.13,5.05-9.23,7.55-15.48,12.53,5.24,9,7.9,13.41,13.34,22.31-3.21-.37-4.81-.57-8-1-4.19-7.25-6.26-10.88-10.32-18.16l-3.81,3.13-1.75,13-6.52-.89q3.54-25.32,7.09-50.63l6.26.86Q790.58,325.52,788.42,341.51Z" transform="translate(-299.38 -288.71)"/><path class="cls-3" d="M804.48,372.73c3,.15,5.83-.33,7.55-1.8,2-1.73,3-4.44,4-12.74q1.62-14.49,3.26-29l6.43.71q-1.7,15.72-3.38,31.43c-.72,6.73-2.32,11-5.92,13.77-3.23,2.47-8.25,3.05-11.81,2.63C804.53,375.74,804.51,374.74,804.48,372.73Zm23-52.47a4,4,0,0,1-7.91-.87,3.91,3.91,0,0,1,4.5-3.48A3.82,3.82,0,0,1,827.45,320.26Z" transform="translate(-299.38 -288.71)"/><path class="cls-3" d="M852.91,367.53c-.06-1.76-.1-2.65-.16-4.42l-.22,0A13.68,13.68,0,0,1,841,367.27c-7.37-.68-10.66-6.06-10.12-11,1.16-10.63,14.45-12.07,22.82-10.89l.06-.72c.24-2.87-.13-8.08-7.4-8.74a18.37,18.37,0,0,0-9.5,1.7c-.43-1.72-.64-2.58-1.06-4.3a22.88,22.88,0,0,1,11.94-2c10.82,1,12.88,8.4,12.33,15.36-.42,5.2-.63,7.8-1,13a46.25,46.25,0,0,0-.06,8.38C856.52,367.83,855.31,367.74,852.91,367.53Zm.52-17.8c-7.11-.75-15.3-.3-15.95,6.44-.4,4.08,2.26,6.29,5.64,6.6a9,9,0,0,0,9.26-5,6.17,6.17,0,0,0,.54-2C853.13,353.35,853.23,352.14,853.43,349.73Z" transform="translate(-299.38 -288.71)"/><path class="cls-3" d="M895,369.11a26.08,26.08,0,0,1-10.58,1.42,17.41,17.41,0,0,1-16.84-18.95c.85-10.57,9.93-17.91,20.42-17.19a23.29,23.29,0,0,1,8.85,2.29c-.69,1.93-1,2.89-1.73,4.81a15.62,15.62,0,0,0-7.42-2.07c-8.17-.48-13,5.09-13.48,12.34-.56,8.05,4.5,13.38,11.71,13.81a19.25,19.25,0,0,0,8.2-1.27C894.51,366.22,894.69,367.18,895,369.11Z" transform="translate(-299.38 -288.71)"/><path class="cls-3" d="M910.07,352.22h.15c.94-1.19,2.26-2.65,3.34-3.83,4.4-4.64,6.58-7,10.9-11.65l7.78.22c-5.64,5.59-8.48,8.37-14.24,13.9,6,8.43,9.1,12.63,15.32,21-3.22-.07-4.84-.12-8.06-.21-4.84-6.83-7.22-10.25-11.93-17.13l-3.5,3.47-.55,13.09-6.55-.29,2.37-51.07c2.52.12,3.79.18,6.31.28Q910.74,336.1,910.07,352.22Z" transform="translate(-299.38 -288.71)"/><path class="cls-3" d="M954.24,348.71c0-4.47-.08-8.07-.2-11.38,2.32,0,3.48,0,5.8,0,.11,2.4.16,3.59.27,6h.15c2.67-4.24,6.85-6.75,12.64-6.78,8.59-.06,15,7.13,15.36,17.53.34,9.63-6,18.85-16.26,18.91-4.83,0-9.06-2-11.23-5.46h-.15c0,7.57,0,11.36-.06,18.94l-6.63,0Q954.1,367.57,954.24,348.71Zm6.41,9.32a14.76,14.76,0,0,0,.29,2.6,10.08,10.08,0,0,0,9.9,7.41c7,0,11-5.57,10.88-13.56-.09-7-3.92-12.9-10.78-12.87a10.36,10.36,0,0,0-9.81,7.86,9.64,9.64,0,0,0-.46,2.59C960.66,354.45,960.66,355.64,960.65,358Z" transform="translate(-299.38 -288.71)"/><path class="cls-3" d="M1017.14,371.2l-.7-4.37h-.23a13.67,13.67,0,0,1-11,5.57c-7.39.22-11.3-4.72-11.38-9.72-.15-10.69,12.85-13.75,21.29-13.61,0-.28,0-.43,0-.72-.11-2.87-1.12-8-8.41-7.77a18.34,18.34,0,0,0-9.21,2.86c-.63-1.66-.94-2.49-1.57-4.14a22.82,22.82,0,0,1,11.59-3.43c10.86-.35,13.81,6.75,14.11,13.73.22,5.21.34,7.82.56,13a46.29,46.29,0,0,0,1,8.32Zm-1.66-17.73c-7.15.13-15.22,1.57-15,8.34.11,4.1,3,6,6.4,5.86a8.94,8.94,0,0,0,8.57-6.13,6.53,6.53,0,0,0,.3-2C1015.62,357.09,1015.57,355.88,1015.48,353.47Z" transform="translate(-299.38 -288.71)"/><path class="cls-3" d="M1033.23,335.58c3.55,8.06,5.34,12.08,9,20.12,1,2.26,2,4.93,2.74,7h.15c.55-2.12,1.13-4.83,1.87-7.4,2.35-8.34,3.51-12.51,5.77-20.87l6.82-.47c-3.15,10.19-4.76,15.28-8.06,25.45-3.93,12.24-6.87,18.55-11.18,22.54a18.56,18.56,0,0,1-8,4.53c-.78-2.09-1.17-3.14-1.94-5.23a18.83,18.83,0,0,0,5.68-3.39,19.68,19.68,0,0,0,5.2-7.36,4.26,4.26,0,0,0,.44-1.54,5.49,5.49,0,0,0-.54-1.63q-7.59-15.65-15-31.37C1029,335.8,1030.42,335.72,1033.23,335.58Z" transform="translate(-299.38 -288.71)"/><path class="cls-3" d="M1066.26,361.87a17.51,17.51,0,0,0,8.89,1.82c4.8-.39,6.84-2.89,6.59-5.76s-2.3-4.53-7.25-5.81c-6.61-1.72-10-4.92-10.27-9.08-.42-5.6,3.84-10.53,11.45-11.19a18.45,18.45,0,0,1,8.91,1.38l-1.2,4.74a14.31,14.31,0,0,0-7.45-1.37c-3.82.33-5.78,2.65-5.57,5.23.24,2.87,2.48,4,7.29,5.32,6.42,1.76,9.9,4.46,10.38,9.63.57,6.09-4,10.87-12.65,11.59a21.33,21.33,0,0,1-10.41-1.56C1065.49,364.84,1065.74,363.85,1066.26,361.87Z" transform="translate(-299.38 -288.71)"/><path class="cls-3" d="M1112,356.79a22.67,22.67,0,0,0,11.1,1.69c8.44-1,10.38-6.53,9.83-10.36-.93-6.46-7.3-8.5-13.57-7.76l-3.61.42-.55-4.72,3.6-.42c4.7-.56,10.35-3.66,9.65-9.16-.47-3.72-3.28-6.69-9.16-6a17.87,17.87,0,0,0-9.09,4.17c-.88-1.75-1.32-2.63-2.19-4.39a23.21,23.21,0,0,1,11.9-5c9.26-1.12,14.16,3.73,14.9,9.37.63,4.78-1.76,9.25-7.38,12.05l0,.15c6,.4,11.38,4.05,12.25,10.54,1,7.42-4.22,14.76-15.92,16.16a25.32,25.32,0,0,1-13-1.69Z" transform="translate(-299.38 -288.71)"/><path class="cls-3" d="M1168.48,311.22l1.57,9.89c3.67-.59,5.5-.89,9.16-1.5l.8,4.76c-3.68.61-5.52.92-9.2,1.5,1.19,7.43,1.78,11.14,3,18.56.68,4.27,2.34,6.49,6,5.89a15.18,15.18,0,0,0,3.72-1.05c.43,1.86.65,2.78,1.08,4.64a16.7,16.7,0,0,1-5.68,1.81,9.74,9.74,0,0,1-7.51-1.5c-2.07-1.57-3.3-4.52-3.92-8.58-1.17-7.51-1.75-11.27-2.91-18.78l-5.48.83c-.28-1.91-.43-2.86-.71-4.77l5.46-.83c-.51-3.3-.77-4.95-1.28-8.25C1164.91,312.8,1166.1,312.27,1168.48,311.22Z" transform="translate(-299.38 -288.71)"/><path class="cls-3" d="M1221.05,329.4A17.84,17.84,0,0,1,1206.7,351c-9.88,1.84-18.64-4.91-20.3-14.61-1.7-9.9,4.16-19.51,14.3-21.33S1218.86,319.12,1221.05,329.4ZM1192.91,335c1.32,7.52,6.85,12.4,13.23,11.23s9.83-7.64,8.35-15.35c-1.12-5.79-5.51-12.55-13.07-11.16S1191.77,328.5,1192.91,335Z" transform="translate(-299.38 -288.71)"/><path class="cls-3" d="M1246.38,342.26l-.82-3.8,4.06-5.82c5.52-7.36,14.15-18.22,12.21-27.87-.9-4.52-4.37-8.36-11.32-6.78a16.66,16.66,0,0,0-9,6.06l-3-3.92a21.4,21.4,0,0,1,12.14-7.56c10-2.27,15.89,3.47,17.35,9.93,2.31,10.2-5.54,20.3-10.6,28.26-1.23,1.69-1.84,2.54-3.08,4.23l0,.14c8.62-1.92,12.92-2.91,21.51-5,.49,2,.73,3.06,1.22,5.11Q1261.79,339,1246.38,342.26Z" transform="translate(-299.38 -288.71)"/><path class="cls-4" d="M672.77,378.71a99.82,99.82,0,0,1,13.4,2.1c8.91,2,14.81,5.47,18.23,10.21s4.89,10.81,3.3,18.5-5.43,13.58-11,17-13.85,4.18-23.55,1.95a104.54,104.54,0,0,1-11.56-3.31Q667.2,401.91,672.77,378.71ZM669.16,422a40.77,40.77,0,0,0,6.4,1.85c12.31,2.8,22.61-3.18,25.47-15.47,2.58-11.06-4.94-20.46-15.68-22.62a48.2,48.2,0,0,0-7.44-1.06Q673.53,403.32,669.16,422Z" transform="translate(-299.38 -288.71)"/><path class="cls-4" d="M717.82,420.88c-1.5,8.44,3.46,13,10,14.22a24.53,24.53,0,0,0,10.28,0c.13,1.86.19,2.79.32,4.66a32.41,32.41,0,0,1-12.39-.06,17.18,17.18,0,0,1-14.26-20.66c1.94-9.38,10-17.16,20.15-15.23,11.41,2.17,12.77,12.49,11.66,18.8a21.73,21.73,0,0,1-.73,2.87C732.82,423.77,727.81,422.84,717.82,420.88Zm19.79-.89c.79-4,.15-10.42-7.05-11.77-6.47-1.22-10.43,4-11.79,8.22C726.3,417.92,730.06,418.63,737.61,420Z" transform="translate(-299.38 -288.71)"/><path class="cls-4" d="M768.42,446.22c.05-1.77.08-2.65.14-4.42l-.22,0a13.71,13.71,0,0,1-11.86,3.38c-7.33-1.19-10.26-6.79-9.38-11.71,1.89-10.54,15.3-11.05,23.57-9.3l.11-.71c.43-2.85.42-8.08-6.81-9.24a18.59,18.59,0,0,0-9.62,1.05c-.31-1.74-.46-2.62-.76-4.36a23,23,0,0,1,12.07-1.16C776.42,411.43,778,419,777,425.88c-.77,5.16-1.15,7.74-1.91,12.89a46.25,46.25,0,0,0-.63,8.35C772,446.77,770.81,446.59,768.42,446.22Zm1.73-17.73c-7.07-1.23-15.3-1.35-16.41,5.33-.67,4.05,1.85,6.44,5.2,7a9,9,0,0,0,9.61-4.39,6.51,6.51,0,0,0,.68-1.94C769.6,432.08,769.78,430.88,770.15,428.49Z" transform="translate(-299.38 -288.71)"/><path class="cls-4" d="M791.54,397.94l6.33.87q-3.42,25.33-6.83,50.67l-6.6-.91Q788,423.25,791.54,397.94Z" transform="translate(-299.38 -288.71)"/><path class="cls-4" d="M807.8,435.23c-.9,8.52,4.36,12.73,11,13.48A24.5,24.5,0,0,0,829,448l.65,4.63a32,32,0,0,1-12.33.82,17.15,17.15,0,0,1-15.64-19.59c1.26-9.47,8.73-17.83,19-16.63,11.52,1.35,13.59,11.55,12.94,17.92a22.73,22.73,0,0,1-.53,2.92C822.93,437.05,817.88,436.47,807.8,435.23Zm19.62-2.3c.51-4-.58-10.4-7.84-11.23-6.52-.75-10.1,4.74-11.15,9C816,431.67,819.82,432.11,827.42,432.93Z" transform="translate(-299.38 -288.71)"/><path class="cls-4" d="M842.08,431.25c.39-4.09.66-7.61.75-10.85l5.64.53c-.17,2.73-.25,4.1-.41,6.83l.29,0c2-4.51,6.19-7.1,10.51-6.74a7.15,7.15,0,0,1,1.81.37c-.19,2.38-.29,3.57-.49,6A9.64,9.64,0,0,0,858,427c-4.56-.39-8.1,2.69-9.42,7.34a18.13,18.13,0,0,0-.56,2.91c-.68,7.4-1,11.1-1.69,18.5l-6.55-.61C840.69,445.57,841.15,440.8,842.08,431.25Z" transform="translate(-299.38 -288.71)"/><path class="cls-4" d="M879.87,451.87a17.76,17.76,0,0,0,8.55,3.06c4.81.28,7.19-1.91,7.35-4.78s-1.64-4.81-6.37-6.78c-6.3-2.63-9.15-6.27-8.88-10.44.37-5.6,5.29-9.88,12.92-9.45a18.27,18.27,0,0,1,8.62,2.62l-1.85,4.52a14.27,14.27,0,0,0-7.18-2.4c-3.83-.22-6.1,1.8-6.26,4.39-.17,2.87,1.89,4.31,6.47,6.29,6.11,2.65,9.17,5.82,8.92,11-.3,6.11-5.49,10.2-14.16,9.69a21.33,21.33,0,0,1-10.1-3C878.69,454.69,879.09,453.75,879.87,451.87Z" transform="translate(-299.38 -288.71)"/><path class="cls-4" d="M919.81,415.47c-.15,4-.22,6-.36,10,3.7.13,5.55.19,9.25.3-.05,1.93-.08,2.89-.14,4.82-3.71-.1-5.57-.16-9.28-.3-.27,7.52-.41,11.27-.67,18.79-.16,4.31,1,6.81,4.72,6.93a15.37,15.37,0,0,0,3.84-.32c.07,1.91.1,2.86.17,4.76a16.63,16.63,0,0,1-5.92.68,9.65,9.65,0,0,1-7.06-2.92c-1.73-1.94-2.36-5.06-2.19-9.16.3-7.6.46-11.4.77-19l-5.53-.24c.09-1.92.13-2.89.22-4.82l5.51.24.34-8.34Z" transform="translate(-299.38 -288.71)"/><path class="cls-4" d="M955.41,461.1l-.5-4.4h-.22a13.71,13.71,0,0,1-11.22,5.05c-7.4-.12-11.09-5.23-10.93-10.24.34-10.68,13.49-13.13,21.91-12.6v-.72c0-2.88-.75-8.05-8-8.15a18.3,18.3,0,0,0-9.34,2.42c-.56-1.68-.83-2.52-1.38-4.21a22.83,22.83,0,0,1,11.74-2.88c10.86.15,13.48,7.38,13.46,14.37,0,5.21,0,7.82,0,13a46.41,46.41,0,0,0,.58,8.36Zm-.84-17.79c-7.15-.2-15.29.86-15.42,7.63-.08,4.11,2.74,6.11,6.13,6.16a9,9,0,0,0,8.85-5.73,6.57,6.57,0,0,0,.39-2Z" transform="translate(-299.38 -288.71)"/><path class="cls-4" d="M971.42,435.69c0-3.6-.11-6.55-.34-9.43l5.73,0c.16,2.3.25,3.45.42,5.76h.15a13.23,13.23,0,0,1,11.68-6.73c4.91-.1,12.63,2.57,13,14.52.25,8.32.37,12.48.61,20.8l-6.64.18c-.19-8-.29-12.05-.48-20.08-.14-5.62-2.39-10.23-8.51-10.13a9.28,9.28,0,0,0-8.63,6.61,9.13,9.13,0,0,0-.41,3c.09,8.38.13,12.57.22,20.95l-6.64.05C971.5,450.94,971.48,445.86,971.42,435.69Z" transform="translate(-299.38 -288.71)"/><path class="cls-4" d="M1041.79,407.61l2.61,42c.19,3.1.49,6.61.86,9l-6,.36-.65-6h-.15c-1.81,4-6.1,7.2-12.06,7.49-8.83.42-15.84-6.51-16.25-17.05-.45-11.55,6.59-19,15.25-19.38,5.43-.26,9.23,2,11,4.76h.14c-.47-8.31-.7-12.47-1.18-20.78C1038,407.85,1039.25,407.77,1041.79,407.61Zm-4.64,30.79a10.51,10.51,0,0,0-.45-2.64,9.56,9.56,0,0,0-9.76-6.84c-6.7.33-10.44,6.24-10.13,13.93.29,7.06,4.14,12.75,11.28,12.4a9.79,9.79,0,0,0,9.26-8.06,10.71,10.71,0,0,0,.15-2.75Z" transform="translate(-299.38 -288.71)"/><path class="cls-4" d="M1054.6,451.51a17.7,17.7,0,0,0,8.89,1.87c4.81-.36,6.87-2.85,6.63-5.72-.24-3-2.27-4.54-7.22-5.86-6.6-1.75-9.92-5-10.21-9.14-.39-5.61,3.91-10.51,11.53-11.11a18.21,18.21,0,0,1,8.9,1.43l-1.23,4.73a14.34,14.34,0,0,0-7.44-1.41c-3.83.3-5.8,2.61-5.61,5.19.22,2.88,2.45,4,7.26,5.37,6.41,1.8,9.88,4.52,10.33,9.68.53,6.1-4.07,10.86-12.73,11.52a21.3,21.3,0,0,1-10.42-1.62C1053.81,454.46,1054.08,453.48,1054.6,451.51Z" transform="translate(-299.38 -288.71)"/><path class="cls-4" d="M1132.28,432.39A17.81,17.81,0,0,1,1116.6,453c-10,1.2-18.27-6.11-19.3-15.89-1-10,5.39-19.2,15.62-20.36S1130.75,422,1132.28,432.39Zm-28.4,3.79c.83,7.58,6,12.82,12.47,12.06s10.28-7,9.3-14.78c-.75-5.86-4.69-12.88-12.31-12S1103.16,429.59,1103.88,436.18Z" transform="translate(-299.38 -288.71)"/><path class="cls-4" d="M1139.42,423.64c-.49-3.56-1-6.48-1.59-9.3l5.69-.8,1.18,5.65.15,0a13.33,13.33,0,0,1,10.72-8.22c4.88-.74,12.9.88,14.83,12.68l3.35,20.53-6.58,1.06c-1.25-7.94-1.88-11.91-3.13-19.84-.88-5.55-3.73-9.83-9.8-8.91a9.28,9.28,0,0,0-7.7,7.69,9,9,0,0,0,0,3c1.2,8.29,1.79,12.44,3,20.74l-6.59.93Z" transform="translate(-299.38 -288.71)"/><path class="cls-4" d="M1204.57,397.11l-.14,0c-2.92,2.35-4.39,3.53-7.34,5.87L1195,398.5c3.7-2.92,5.54-4.38,9.19-7.33l5.38-1.06q4.59,23,9.17,45.9l-6.33,1.24Q1208.48,417.18,1204.57,397.11Z" transform="translate(-299.38 -288.71)"/><path class="cls-4" d="M1256.64,379.76c.39,1.62.59,2.43,1,4.06-3.42,15.49-7.12,30.92-11,46.29l-6.75,1.49q6-22.46,11.45-45l0-.14c-9.11,2.14-13.68,3.16-22.81,5.12-.44-2.05-.67-3.08-1.11-5.14Q1242,383.29,1256.64,379.76Z" transform="translate(-299.38 -288.71)"/></g></svg>