<svg id="Lager_1" data-name="Lager 1" xmlns="http://www.w3.org/2000/svg" viewBox="0 0 85.02 85"><defs><style>.cls-1{fill:#fff;}.cls-2,.cls-3{fill:#004080;}.cls-2{fill-rule:evenodd;}.cls-4{fill:none;stroke:#999;stroke-miterlimit:10;}</style></defs><title>Casino_Chip_White2</title><g id="Ebene_1" data-name="Ebene 1"><circle class="cls-1" cx="42.52" cy="42.5" r="42.5"/><path class="cls-2" d="M84.31,50.2a44.26,44.26,0,0,0,0-15.4H75V50.2ZM63,26.6l2-1.2a29.15,29.15,0,0,1,3.5,6.2l-2.1,1.2A18.7,18.7,0,0,0,63,26.6Zm5.2,12.3h2.4a28.12,28.12,0,0,1,0,7.1h-2.4A28.12,28.12,0,0,0,68.21,38.9Zm-3.1,20.7L63,58.4a30.45,30.45,0,0,0,2-2.9,31.83,31.83,0,0,0,1.6-3.2l2.1,1.2c-.5,1.1-1,2.1-1.6,3.2A21.15,21.15,0,0,1,65.11,59.6Zm-8.4,22.9-4.6-8.1,13.3-7.6,4.7,8.1A44.72,44.72,0,0,1,56.71,82.5Zm-4.4-64.1,1.2-2.1c1.1.5,2.1,1,3.2,1.6a14.82,14.82,0,0,1,2.9,2L58.41,22a30.45,30.45,0,0,0-2.9-2A31.83,31.83,0,0,0,52.31,18.4ZM25.41,65.1l1.2-2.1a30.45,30.45,0,0,0,2.9,2,31.83,31.83,0,0,0,3.2,1.6l-1.2,2.1c-1.1-.5-2.1-1-3.2-1.6A21.15,21.15,0,0,1,25.41,65.1Zm-9-11.6,2.1-1.2A29.15,29.15,0,0,0,22,58.5l-2,1.2A30.47,30.47,0,0,1,16.41,53.5Zm-2-14.6h2.4a28.12,28.12,0,0,0,0,7.1h-2.4A28.12,28.12,0,0,1,14.41,38.9Zm4-6.2-2.1-1.2c.5-1.1,1-2.1,1.6-3.2a18,18,0,0,1,2-2.9L22,26.6a30.45,30.45,0,0,0-2,2.9A31.83,31.83,0,0,0,18.41,32.7ZM39,16.8V14.4a28.12,28.12,0,0,1,7.1,0v2.4A21.15,21.15,0,0,0,39,16.8Zm0,53.8V68.2a28.12,28.12,0,0,0,7.1,0v2.4A28.12,28.12,0,0,1,39,70.6ZM26.61,22l-1.2-2a29.15,29.15,0,0,1,6.2-3.5l1.2,2.1A18.7,18.7,0,0,0,26.61,22Zm26.9,46.6-1.2-2.1a29.15,29.15,0,0,0,6.2-3.5l1.2,2A30.47,30.47,0,0,1,53.51,68.6ZM28.31,2.5A41.13,41.13,0,0,0,15,10.2l4.7,8.1L33,10.6ZM.71,34.8H10V50.2H.71A42,42,0,0,1,.71,34.8Zm14.2,40.1,4.7-8.1,13.3,7.7-4.7,8.1a49.07,49.07,0,0,1-7-3.2A73.5,73.5,0,0,1,14.91,74.9ZM70,10.1a50.77,50.77,0,0,0-6.3-4.5,39.86,39.86,0,0,0-7-3.2L52,10.5l13.3,7.7Z" transform="translate(0)"/></g><g id="Lager_3" data-name="Lager 3"><circle class="cls-3" cx="39.81" cy="74.9" r="0.8"/><circle class="cls-3" cx="45.21" cy="80.3" r="0.8"/><path class="cls-4" d="M46.21,81.8h-7.4a.47.47,0,0,1-.5-.44V73.9a.47.47,0,0,1,.44-.5h7.46a.47.47,0,0,1,.5.44V81.3a.47.47,0,0,1-.44.5Z" transform="translate(0)"/><circle class="cls-3" cx="45.21" cy="74.9" r="0.8"/><circle class="cls-3" cx="39.81" cy="80.3" r="0.8"/></g><g id="Lager_4" data-name="Lager 4"><circle class="cls-3" cx="42.51" cy="7.3" r="0.8"/><path class="cls-4" d="M46.21,11.6h-7.4a.47.47,0,0,1-.5-.44V3.7a.47.47,0,0,1,.44-.5h7.46a.47.47,0,0,1,.5.44V11.1A.54.54,0,0,1,46.21,11.6Z" transform="translate(0)"/><circle class="cls-3" cx="45.21" cy="4.6" r="0.8"/><circle class="cls-3" cx="39.81" cy="10" r="0.8"/></g><g id="Lager_5" data-name="Lager 5"><circle class="cls-3" cx="73.41" cy="24.8" r="0.8"/><path class="cls-4" d="M71.61,30.1l-3.7-6.5a.53.53,0,0,1,.2-.7l6.5-3.7a.53.53,0,0,1,.7.2L79,25.9a.53.53,0,0,1-.2.7l-6.5,3.7A.56.56,0,0,1,71.61,30.1Z" transform="translate(0)"/></g><g id="Lager_6" data-name="Lager 6"><circle class="cls-3" cx="12.51" cy="28.7" r="0.8"/><path class="cls-4" d="M13.31,30.2,17,23.7a.53.53,0,0,0-.2-.7l-6.5-3.7a.53.53,0,0,0-.7.2L5.91,26a.53.53,0,0,0,.2.7l6.5,3.7C12.91,30.5,13.21,30.5,13.31,30.2Z" transform="translate(0)"/><circle class="cls-3" cx="10.41" cy="21.1" r="0.8"/><path class="cls-4" d="M14.11,54.3l3.7,6.5a.53.53,0,0,1-.2.7l-6.5,3.7a.53.53,0,0,1-.7-.2l-3.6-6.5a.53.53,0,0,1,.2-.7l6.5-3.7A.48.48,0,0,1,14.11,54.3Z" transform="translate(0)"/><circle class="cls-3" cx="11.21" cy="63.4" r="0.8"/><circle class="cls-3" cx="13.61" cy="62" r="0.8"/><circle class="cls-3" cx="16.01" cy="60.7" r="0.8"/><circle class="cls-3" cx="8.61" cy="58.6" r="0.8"/><circle class="cls-3" cx="10.91" cy="57.2" r="0.8"/><circle class="cls-3" cx="73.91" cy="63.7" r="0.8"/><path class="cls-4" d="M74.71,65.3l3.7-6.5a.53.53,0,0,0-.2-.7l-6.5-3.7a.53.53,0,0,0-.7.2l-3.7,6.5a.53.53,0,0,0,.2.7L74,65.5A.56.56,0,0,0,74.71,65.3Z" transform="translate(0)"/><circle class="cls-3" cx="71.91" cy="56.2" r="0.8"/><circle class="cls-3" cx="72.91" cy="60" r="0.8"/><circle class="cls-3" cx="76.61" cy="58.9" r="0.8"/></g><g id="Lager_8" data-name="Lager 8"><circle class="cls-3" cx="69.11" cy="61" r="0.8"/></g><g id="Lager_7" data-name="Lager 7"><circle class="cls-3" cx="13.31" cy="55.9" r="0.8"/></g></svg>