<svg xmlns="http://www.w3.org/2000/svg" viewBox="0 0 85.06 85.06"><defs><style>.cls-1{fill:#900;}.cls-2{fill:#fefefe;fill-rule:evenodd;}.cls-3{fill:#fff;}.cls-4{fill:none;stroke:maroon;stroke-miterlimit:10;}</style></defs><title>Casino_Chip_Red</title><g id="Lager_1" data-name="Lager 1"><g id="Ebene_1"><circle class="cls-1" cx="56.69" cy="56.69" r="42.52" transform="translate(-15.11 -13.2) rotate(-0.96)"/><path class="cls-2" d="M98.51,64.37a42.62,42.62,0,0,0,0-15.36h-9.3V64.37ZM77.22,40.76l2-1.19a28.13,28.13,0,0,1,3.54,6.15l-2.07,1.19A26.85,26.85,0,0,0,77.22,40.76Zm5.19,12.39h2.38a28,28,0,0,1,0,7.09H82.43A25.5,25.5,0,0,0,82.41,53.15ZM79.29,73.81l-2.07-1.19a23,23,0,0,0,2-3,25.86,25.86,0,0,0,1.56-3.17l2.07,1.19a28.58,28.58,0,0,1-1.59,3.18A25.83,25.83,0,0,1,79.29,73.81ZM70.92,96.72l-4.64-8L79.57,81l4.68,8.08A42.84,42.84,0,0,1,70.92,96.72ZM66.5,32.63l1.19-2.07a30.32,30.32,0,0,1,3.18,1.58,27.45,27.45,0,0,1,2.95,2l-1.19,2.07a24.93,24.93,0,0,0-2.95-2A27.45,27.45,0,0,0,66.5,32.63ZM39.57,79.28l1.19-2.07a24.93,24.93,0,0,0,3,2,29.24,29.24,0,0,0,3.18,1.56L45.7,82.83a30.42,30.42,0,0,1-3.18-1.59A27.45,27.45,0,0,1,39.57,79.28Zm-9-11.62,2.07-1.19a26.85,26.85,0,0,0,3.51,6.15l-2,1.19A27.73,27.73,0,0,1,30.59,67.66Zm-2-14.51H31a25.51,25.51,0,0,0,0,7.09H28.6A28,28,0,0,1,28.58,53.15Zm4.05-6.27-2.07-1.19a29.33,29.33,0,0,1,1.59-3.17,26,26,0,0,1,2-3l2.07,1.19a23.71,23.71,0,0,0-2,3A26.59,26.59,0,0,0,32.63,46.88ZM53.15,31V28.6a28.51,28.51,0,0,1,7.09,0V31A25.9,25.9,0,0,0,53.15,31Zm0,53.83V82.43a25.89,25.89,0,0,0,7.09,0v2.38A27.57,27.57,0,0,1,53.15,84.81ZM40.76,36.17l-1.19-2a27.77,27.77,0,0,1,6.15-3.55l1.2,2.07A26.39,26.39,0,0,0,40.76,36.17ZM67.66,82.8l-1.19-2.07a26.39,26.39,0,0,0,6.16-3.52l1.19,2.05A28,28,0,0,1,67.66,82.8ZM42.46,16.67a43.08,43.08,0,0,0-13.32,7.65l4.68,8.08,13.29-7.68ZM14.88,49h9.33V64.37h-9.3A42.63,42.63,0,0,1,14.88,49ZM29.14,89.06,33.82,81l13.29,7.69-4.67,8.08a42.48,42.48,0,0,1-7-3.24A41.23,41.23,0,0,1,29.14,89.06ZM84.25,24.32A41.94,41.94,0,0,0,78,19.87a43.26,43.26,0,0,0-7-3.23l-4.67,8.08L79.57,32.4Z" transform="translate(-14.16 -14.16)"/></g></g><g id="Lager_3" data-name="Lager 3"><circle class="cls-3" cx="39.8" cy="74.92" r="0.82"/><circle class="cls-3" cx="45.22" cy="80.34" r="0.82"/><g id="Lager_2" data-name="Lager 2"><rect class="cls-4" x="38.32" y="73.43" width="8.43" height="8.43" rx="0.5"/></g><circle class="cls-3" cx="45.22" cy="74.92" r="0.82"/><circle class="cls-3" cx="39.8" cy="80.34" r="0.82"/></g><g id="Lager_4" data-name="Lager 4"><circle class="cls-3" cx="42.53" cy="7.38" r="0.82"/><rect class="cls-4" x="38.32" y="3.17" width="8.43" height="8.43" rx="0.5"/><circle class="cls-3" cx="45.23" cy="4.66" r="0.82"/><circle class="cls-3" cx="39.8" cy="10.08" r="0.82"/></g><g id="Lager_5" data-name="Lager 5"><circle class="cls-3" cx="73.44" cy="24.8" r="0.82"/><rect class="cls-4" x="83.39" y="34.75" width="8.43" height="8.43" rx="0.5" transform="translate(64.01 -70.61) rotate(60.38)"/></g><g id="Lager_6" data-name="Lager 6"><circle class="cls-3" cx="12.53" cy="28.7" r="0.82"/><rect class="cls-4" x="21.46" y="34.89" width="8.43" height="8.43" rx="0.5" transform="translate(58.19 21.96) rotate(119.62)"/><circle class="cls-3" cx="10.47" cy="21.18" r="0.82"/><rect class="cls-4" x="22.27" y="69.6" width="8.43" height="8.43" rx="0.5" transform="translate(-38.76 119.16) rotate(-119.62)"/><circle class="cls-3" cx="11.28" cy="63.41" r="0.82"/><circle class="cls-3" cx="13.64" cy="62.01" r="0.82"/><circle class="cls-3" cx="16" cy="60.7" r="0.82"/><circle class="cls-3" cx="8.62" cy="58.65" r="0.82"/><circle class="cls-3" cx="10.98" cy="57.25" r="0.82"/><circle class="cls-3" cx="73.95" cy="63.76" r="0.82"/><rect class="cls-4" x="82.88" y="69.95" width="8.43" height="8.43" rx="0.5" transform="translate(180.45 20.95) rotate(119.62)"/><circle class="cls-3" cx="71.89" cy="56.24" r="0.82"/><circle class="cls-3" cx="72.93" cy="60" r="0.82"/><circle class="cls-3" cx="76.65" cy="58.96" r="0.82"/></g><g id="Lager_8" data-name="Lager 8"><circle class="cls-3" cx="69.16" cy="61.03" r="0.82"/></g><g id="Lager_7" data-name="Lager 7"><circle class="cls-3" cx="13.34" cy="55.94" r="0.82"/></g></svg>