<svg id="Lager_1" data-name="Lager 1" xmlns="http://www.w3.org/2000/svg" viewBox="0 0 85.05 85.04"><defs><style>.cls-1{fill:#593b00;}.cls-2{fill:#fefefe;fill-rule:evenodd;}.cls-3{fill:#fff;}.cls-4{fill:none;stroke:#402b00;stroke-miterlimit:10;}</style></defs><title>Casino_Chip_Brown</title><g id="Ebene_1" data-name="Ebene 1"><circle class="cls-1" cx="42.52" cy="42.52" r="42.52"/><path class="cls-2" d="M84.35,50.2a42.63,42.63,0,0,0,0-15.36h-9.3V50.2ZM63.06,26.59l2-1.19a28.48,28.48,0,0,1,3.54,6.15l-2.07,1.19A27,27,0,0,0,63.06,26.59ZM68.25,39h2.38a28,28,0,0,1,0,7.09H68.27A25.51,25.51,0,0,0,68.25,39ZM65.13,59.64l-2.07-1.19a24.07,24.07,0,0,0,2-3,26.61,26.61,0,0,0,1.56-3.17l2.07,1.19a27,27,0,0,1-1.59,3.18A25.71,25.71,0,0,1,65.13,59.64ZM56.76,82.55l-4.64-8,13.29-7.72,4.68,8.08A42.78,42.78,0,0,1,56.76,82.55ZM52.34,18.46l1.19-2.07A29.55,29.55,0,0,1,56.71,18a26.81,26.81,0,0,1,2.95,2l-1.19,2.07a23.52,23.52,0,0,0-2.95-2A29.55,29.55,0,0,0,52.34,18.46ZM25.41,65.11,26.6,63a24.07,24.07,0,0,0,3,2,31.2,31.2,0,0,0,3.18,1.56l-1.24,2.06a31.43,31.43,0,0,1-3.18-1.59A27.44,27.44,0,0,1,25.41,65.11Zm-9-11.62,2.07-1.19A26.42,26.42,0,0,0,22,58.45l-2,1.19a27.75,27.75,0,0,1-3.56-6.15Zm-2-14.5h2.43a25.51,25.51,0,0,0,0,7.09h-2.4a28,28,0,0,1,0-7.09Zm4.05-6.27-2.07-1.19A29.62,29.62,0,0,1,18,28.35a24.07,24.07,0,0,1,2-3l2.07,1.19a24.07,24.07,0,0,0-2,3,26.75,26.75,0,0,0-1.58,3.17ZM39,16.83v-2.4a28,28,0,0,1,7.09,0v2.4A25.51,25.51,0,0,0,39,16.83Zm0,53.83v-2.4a25.51,25.51,0,0,0,7.09,0v2.38a27.14,27.14,0,0,1-7.09,0ZM26.6,22l-1.19-2a28.11,28.11,0,0,1,6.15-3.55l1.2,2.07A26.55,26.55,0,0,0,26.6,22ZM53.5,68.63l-1.19-2.07A26.34,26.34,0,0,0,58.47,63l1.19,2A27.33,27.33,0,0,1,53.5,68.63ZM28.3,2.5A42.86,42.86,0,0,0,15,10.15l4.68,8.08L33,10.55ZM.72,34.83h9.33V50.2H.75A42.69,42.69,0,0,1,.72,34.83ZM15,74.89l4.68-8.06L33,74.52,28.33,82.6a42.72,42.72,0,0,1-7-3.24A42.29,42.29,0,0,1,15,74.89ZM70.09,10.15A42.18,42.18,0,0,0,63.84,5.7a43.93,43.93,0,0,0-7-3.23l-4.67,8.08,13.24,7.68Z"/></g><g id="Lager_3" data-name="Lager 3"><circle class="cls-3" cx="39.8" cy="74.91" r="0.82"/><circle class="cls-3" cx="45.22" cy="80.33" r="0.82"/><rect class="cls-4" x="38.32" y="73.42" width="8.43" height="8.43" rx="0.5"/><circle class="cls-3" cx="45.22" cy="74.91" r="0.82"/><circle class="cls-3" cx="39.8" cy="80.33" r="0.82"/></g><g id="Lager_4" data-name="Lager 4"><circle class="cls-3" cx="42.53" cy="7.37" r="0.82"/><rect class="cls-4" x="38.32" y="3.16" width="8.43" height="8.43" rx="0.5"/><circle class="cls-3" cx="45.23" cy="4.65" r="0.82"/><circle class="cls-3" cx="39.8" cy="10.07" r="0.82"/></g><g id="Lager_5" data-name="Lager 5"><circle class="cls-3" cx="73.44" cy="24.79" r="0.82"/><rect class="cls-4" x="69.21" y="20.57" width="8.43" height="8.43" rx="0.5" transform="translate(-2.66 39.53) rotate(-29.62)"/></g><g id="Lager_6" data-name="Lager 6"><circle class="cls-3" cx="12.53" cy="28.69" r="0.82"/><rect class="cls-4" x="7.3" y="20.73" width="8.43" height="8.43" rx="0.5" transform="translate(-15.86 22.62) rotate(-60.38)"/><circle class="cls-3" cx="10.47" cy="21.17" r="0.82"/><rect class="cls-4" x="8.09" y="55.43" width="8.43" height="8.43" rx="0.5" transform="translate(-27.87 13.88) rotate(-29.62)"/><circle class="cls-3" cx="11.28" cy="63.4" r="0.82"/><circle class="cls-3" cx="13.64" cy="62" r="0.82"/><circle class="cls-3" cx="16" cy="60.69" r="0.82"/><circle class="cls-3" cx="8.62" cy="58.64" r="0.82"/><circle class="cls-3" cx="10.98" cy="57.24" r="0.82"/><circle class="cls-3" cx="73.95" cy="63.75" r="0.82"/><rect class="cls-4" x="68.72" y="55.78" width="8.43" height="8.43" rx="0.5" transform="translate(-15.27 93.74) rotate(-60.38)"/><circle class="cls-3" cx="71.89" cy="56.23" r="0.82"/><circle class="cls-3" cx="72.93" cy="59.99" r="0.82"/><circle class="cls-3" cx="76.65" cy="58.95" r="0.82"/></g><g id="Lager_8" data-name="Lager 8"><circle class="cls-3" cx="69.16" cy="61.02" r="0.82"/></g><g id="Lager_7" data-name="Lager 7"><circle class="cls-3" cx="13.34" cy="55.93" r="0.82"/></g></svg>