<svg id="Lager_1" data-name="Lager 1" xmlns="http://www.w3.org/2000/svg" viewBox="0 0 85.05 85.04"><defs><style>.cls-1{fill:#5c1f99;}.cls-2{fill:#fefefe;fill-rule:evenodd;}.cls-3{fill:#fff;}.cls-4{fill:none;stroke:#4d1a80;stroke-miterlimit:10;}</style></defs><title>Casino_Chip_Purple</title><g id="Ebene_1" data-name="Ebene 1"><circle class="cls-1" cx="42.52" cy="42.52" r="42.52"/><path class="cls-2" d="M84.35,50.21a42.63,42.63,0,0,0,0-15.36h-9.3V50.21ZM63.06,26.6l2-1.19a28.48,28.48,0,0,1,3.54,6.15l-2.07,1.19A27,27,0,0,0,63.06,26.6ZM68.25,39h2.38a28,28,0,0,1,0,7.09H68.27A25.51,25.51,0,0,0,68.25,39ZM65.13,59.65l-2.07-1.19a24.07,24.07,0,0,0,2-3,26.61,26.61,0,0,0,1.56-3.17l2.07,1.19a27.74,27.74,0,0,1-1.59,3.18A25.71,25.71,0,0,1,65.13,59.65ZM56.76,82.56l-4.64-8,13.29-7.72,4.68,8.08A42.78,42.78,0,0,1,56.76,82.56ZM52.34,18.47l1.19-2.07A29.39,29.39,0,0,1,56.71,18a26.81,26.81,0,0,1,2.95,2l-1.19,2.07a24.65,24.65,0,0,0-2.95-2A28.51,28.51,0,0,0,52.34,18.47ZM25.41,65.12l1.19-2.07a24.07,24.07,0,0,0,3,2,31.2,31.2,0,0,0,3.18,1.56l-1.24,2.06a31.43,31.43,0,0,1-3.18-1.59A27.44,27.44,0,0,1,25.41,65.12Zm-9-11.62,2.07-1.19A26.59,26.59,0,0,0,22,58.46l-2,1.19a27.75,27.75,0,0,1-3.56-6.15ZM14.41,39h2.43a25.51,25.51,0,0,0,0,7.09h-2.4a28,28,0,0,1,0-7.09Zm4.05-6.27-2.07-1.19A30.26,30.26,0,0,1,18,28.36a25.23,25.23,0,0,1,2-3l2.07,1.19a24.07,24.07,0,0,0-2,3,26.75,26.75,0,0,0-1.58,3.17ZM39,16.84v-2.4a28,28,0,0,1,7.09,0v2.4A25.51,25.51,0,0,0,39,16.84Zm0,53.83v-2.4a25.51,25.51,0,0,0,7.09,0v2.38a27.14,27.14,0,0,1-7.09,0ZM26.6,22l-1.19-2a28.11,28.11,0,0,1,6.15-3.55l1.2,2.07A26.55,26.55,0,0,0,26.6,22ZM53.5,68.64l-1.19-2.07a26.34,26.34,0,0,0,6.16-3.52l1.19,2A27.52,27.52,0,0,1,53.5,68.64ZM28.3,2.51A43.07,43.07,0,0,0,15,10.16l4.68,8.08L33,10.56ZM.72,34.84h9.33V50.21H.75A42.69,42.69,0,0,1,.72,34.84ZM15,74.9l4.68-8.06L33,74.53l-4.67,8.08a42.72,42.72,0,0,1-7-3.24A41.52,41.52,0,0,1,15,74.9ZM70.09,10.16a42.18,42.18,0,0,0-6.25-4.45,43.93,43.93,0,0,0-7-3.23l-4.67,8.08,13.24,7.68Z" transform="translate(0 -0.01)"/></g><g id="Lager_3" data-name="Lager 3"><circle class="cls-3" cx="39.8" cy="74.91" r="0.82"/><circle class="cls-3" cx="45.22" cy="80.33" r="0.82"/><rect class="cls-4" x="38.32" y="73.42" width="8.43" height="8.43" rx="0.5"/><circle class="cls-3" cx="45.22" cy="74.91" r="0.82"/><circle class="cls-3" cx="39.8" cy="80.33" r="0.82"/></g><g id="Lager_4" data-name="Lager 4"><circle class="cls-3" cx="42.53" cy="7.37" r="0.82"/><rect class="cls-4" x="38.32" y="3.16" width="8.43" height="8.43" rx="0.5"/><circle class="cls-3" cx="45.23" cy="4.65" r="0.82"/><circle class="cls-3" cx="39.8" cy="10.07" r="0.82"/></g><g id="Lager_5" data-name="Lager 5"><circle class="cls-3" cx="73.44" cy="24.79" r="0.82"/><rect class="cls-4" x="69.22" y="20.59" width="8.43" height="8.43" rx="0.5" transform="translate(-2.67 39.52) rotate(-29.62)"/></g><g id="Lager_6" data-name="Lager 6"><circle class="cls-3" cx="12.53" cy="28.69" r="0.82"/><rect class="cls-4" x="7.29" y="20.74" width="8.43" height="8.43" rx="0.5" transform="translate(-15.87 22.61) rotate(-60.38)"/><circle class="cls-3" cx="10.47" cy="21.17" r="0.82"/><rect class="cls-4" x="8.1" y="55.44" width="8.43" height="8.43" rx="0.5" transform="translate(-27.88 13.87) rotate(-29.62)"/><circle class="cls-3" cx="11.28" cy="63.4" r="0.82"/><circle class="cls-3" cx="13.64" cy="62" r="0.82"/><circle class="cls-3" cx="16" cy="60.69" r="0.82"/><circle class="cls-3" cx="8.62" cy="58.64" r="0.82"/><circle class="cls-3" cx="10.98" cy="57.24" r="0.82"/><circle class="cls-3" cx="73.95" cy="63.75" r="0.82"/><rect class="cls-4" x="68.72" y="55.79" width="8.43" height="8.43" rx="0.5" transform="translate(-15.28 93.74) rotate(-60.38)"/><circle class="cls-3" cx="71.89" cy="56.23" r="0.82"/><circle class="cls-3" cx="72.93" cy="59.99" r="0.82"/><circle class="cls-3" cx="76.65" cy="58.95" r="0.82"/></g><g id="Lager_8" data-name="Lager 8"><circle class="cls-3" cx="69.16" cy="61.02" r="0.82"/></g><g id="Lager_7" data-name="Lager 7"><circle class="cls-3" cx="13.34" cy="55.93" r="0.82"/></g></svg>