<svg id="Lager_1" data-name="Lager 1" xmlns="http://www.w3.org/2000/svg" viewBox="0 0 113.4 113.4"><defs><style>.cls-1{fill:#069;}.cls-2{fill:#fefefe;fill-rule:evenodd;}.cls-3{fill:#fff;}.cls-4{fill:none;stroke:#005580;stroke-miterlimit:10;}</style></defs><title>Casino_Chip_Blue</title><g id="Ebene_1"><ellipse class="cls-1" cx="56.71" cy="56.7" rx="56.69" ry="56.7"/><path class="cls-2" d="M112.46,67a59.1,59.1,0,0,0,0-20.55h-12.4V67ZM84.05,35.49l2.67-1.61a39.19,39.19,0,0,1,4.67,8.28l-2.81,1.6A25,25,0,0,0,84.05,35.49ZM91,51.89h3.2a37.59,37.59,0,0,1,0,9.48H91A37.59,37.59,0,0,0,91,51.89ZM86.85,79.51l-2.8-1.6A40.78,40.78,0,0,0,86.72,74a42.47,42.47,0,0,0,2.13-4.27l2.8,1.6c-.66,1.47-1.33,2.8-2.13,4.27S87.78,78.31,86.85,79.51Zm-11.2,30.55L69.51,99.25,87.25,89.11l6.27,10.81A59.68,59.68,0,0,1,75.65,110.06ZM69.78,24.55l1.6-2.81c1.47.67,2.8,1.34,4.27,2.14a19.92,19.92,0,0,1,3.86,2.67l-1.6,2.8a38.87,38.87,0,0,0-3.86-2.67A42.47,42.47,0,0,0,69.78,24.55ZM33.9,86.85l1.6-2.8a39.46,39.46,0,0,0,3.87,2.66,43.44,43.44,0,0,0,4.26,2.14L42,91.65c-1.46-.67-2.8-1.33-4.26-2.14S35.1,87.78,33.9,86.85Zm-12-15.48,2.8-1.6A38.45,38.45,0,0,0,29.36,78l-2.67,1.6A40.37,40.37,0,0,1,21.89,71.37ZM19.22,51.89h3.21a37.59,37.59,0,0,0,0,9.48H19.22A37.59,37.59,0,0,1,19.22,51.89Zm5.34-8.27L21.76,42c.67-1.47,1.33-2.8,2.13-4.27a25.43,25.43,0,0,1,2.67-3.87l2.8,1.61a40.63,40.63,0,0,0-2.67,3.86A44.7,44.7,0,0,0,24.56,43.62ZM52,22.41v-3.2a37.52,37.52,0,0,1,9.47,0v3.2A28.4,28.4,0,0,0,52,22.41Zm0,71.77V91a37.51,37.51,0,0,0,9.47,0v3.2A37.51,37.51,0,0,1,52,94.18ZM35.5,29.35l-1.6-2.67A38.45,38.45,0,0,1,42.17,22l1.6,2.8A25.17,25.17,0,0,0,35.5,29.35ZM71.38,91.52l-1.6-2.81a39.33,39.33,0,0,0,8.27-4.66l1.6,2.66A40.43,40.43,0,0,1,71.38,91.52ZM37.77,3.33A55,55,0,0,0,20,13.61l6.26,10.8L44,14.14ZM1,46.42H13.36V67H1A56.11,56.11,0,0,1,1,46.42Zm18.94,53.5,6.27-10.81L43.9,99.39l-6.27,10.8a64.59,64.59,0,0,1-9.34-4.27A95.85,95.85,0,0,1,19.89,99.92Zm73.5-86.45a68.55,68.55,0,0,0-8.41-6A53.42,53.42,0,0,0,75.65,3.2L69.38,14,87.12,24.28Z"/></g><g id="Lager_3" data-name="Lager 3"><circle class="cls-3" cx="53.1" cy="99.92" r="1.07"/><circle class="cls-3" cx="60.31" cy="107.12" r="1.07"/><path class="cls-4" d="M61.64,109.13H51.77a.64.64,0,0,1-.67-.67V98.59a.64.64,0,0,1,.67-.67h9.87a.64.64,0,0,1,.67.67v9.87A.64.64,0,0,1,61.64,109.13Z"/><circle class="cls-3" cx="60.31" cy="99.92" r="1.07"/><circle class="cls-3" cx="53.1" cy="107.12" r="1.07"/></g><g id="Lager_4" data-name="Lager 4"><circle class="cls-3" cx="56.71" cy="9.74" r="1.07"/><path class="cls-4" d="M61.64,15.47H51.77a.63.63,0,0,1-.67-.66V4.94a.64.64,0,0,1,.67-.67h9.87a.64.64,0,0,1,.67.67v9.87A.72.72,0,0,1,61.64,15.47Z"/><circle class="cls-3" cx="60.31" cy="6.14" r="1.07"/><circle class="cls-3" cx="53.1" cy="13.34" r="1.07"/></g><g id="Lager_5" data-name="Lager 5"><circle class="cls-3" cx="97.92" cy="33.08" r="1.07"/><path class="cls-4" d="M95.52,40.15l-4.93-8.67a.69.69,0,0,1,.26-.93l8.67-4.94a.72.72,0,0,1,.94.27l4.93,8.67a.72.72,0,0,1-.27.94l-8.67,4.93A.76.76,0,0,1,95.52,40.15Z"/></g><g id="Lager_6" data-name="Lager 6"><circle class="cls-3" cx="16.69" cy="38.29" r="1.07"/><path class="cls-4" d="M17.76,40.29l4.93-8.67a.7.7,0,0,0-.26-.94l-8.67-4.93a.7.7,0,0,0-.94.26L7.89,34.69a.69.69,0,0,0,.26.93l8.67,4.93C17.22,40.69,17.62,40.69,17.76,40.29Z"/><circle class="cls-3" cx="13.89" cy="28.15" r="1.07"/><path class="cls-4" d="M18.82,72.44l4.94,8.67a.7.7,0,0,1-.27.93L14.82,87a.71.71,0,0,1-.93-.27L9.09,78a.69.69,0,0,1,.26-.93L18,72.17A.64.64,0,0,1,18.82,72.44Z"/><circle class="cls-3" cx="14.96" cy="84.58" r="1.07"/><circle class="cls-3" cx="18.16" cy="82.71" r="1.07"/><circle class="cls-3" cx="21.36" cy="80.98" r="1.07"/><circle class="cls-3" cx="11.49" cy="78.18" r="1.07"/><circle class="cls-3" cx="14.56" cy="76.31" r="1.07"/><circle class="cls-3" cx="98.59" cy="84.98" r="1.07"/><path class="cls-4" d="M99.66,87.11l4.93-8.67a.71.71,0,0,0-.27-.93l-8.67-4.94a.71.71,0,0,0-.93.27l-4.93,8.67a.69.69,0,0,0,.26.93l8.67,4.94A.78.78,0,0,0,99.66,87.11Z"/><circle class="cls-3" cx="95.92" cy="74.97" r="1.07"/><circle class="cls-3" cx="97.25" cy="80.04" r="1.07"/><circle class="cls-3" cx="102.19" cy="78.58" r="1.07"/></g><g id="Lager_8" data-name="Lager 8"><circle class="cls-3" cx="92.19" cy="81.38" r="1.07"/></g><g id="Lager_7" data-name="Lager 7"><circle class="cls-3" cx="17.76" cy="74.57" r="1.07"/></g></svg>